<svg width="329" height="62" viewBox="0 0 329 62" fill="none" xmlns="http://www.w3.org/2000/svg">
<path d="M15.7235 48.6756L27.7505 22.916H23.9456L11.6562 48.8942C12.3997 49.8564 14.8051 47.8446 15.7235 48.6756Z" fill="white"/>
<path d="M22.2852 22.4785H18.4803L8.11523 44.302C8.81498 45.4391 9.51473 46.7511 10.3457 47.8007L22.2852 22.4785Z" fill="white"/>
<path d="M34.005 38.1347L22.2404 22.5215H18.4355L30.2001 38.1347H34.005Z" fill="white"/>
<path d="M34.093 38.2229H30.1569L18.3486 22.4785H22.2847L34.093 38.2229ZM30.2006 38.0917H33.8743L22.1973 22.566H18.5236L30.2006 38.0917Z" fill="white"/>
<path d="M18.346 54.9732L13.7539 56.1978L29.6295 22.6973H33.4344L18.346 54.9732Z" fill="white"/>
<path d="M13.623 56.3298L29.6298 22.6543H33.5659L33.5222 22.7418L18.3901 55.0177L13.623 56.3298ZM29.6736 22.7418L13.8417 56.1111L18.3026 54.8865L33.3472 22.7418H29.6736Z" fill="white"/>
<path d="M39.4278 38.3983L27.707 22.7852H23.8584L35.6229 38.3983H39.4278Z" fill="white"/>
<path d="M39.5608 38.4854H35.6247V38.4416L23.8164 22.6973H27.7525V22.741L39.5608 38.4854ZM35.6684 38.3542H39.3421L27.665 22.8285H23.9913L35.6684 38.3542Z" fill="white"/>
<path d="M43.3658 18.3686L49.1825 5.9043H45.3776L30.333 38.1365H34.1379L42.4912 20.118L43.3658 18.3686Z" fill="white"/>
<path d="M34.1783 38.1791H30.2422L30.2859 38.0916L45.3305 5.85938H49.2666L49.2229 5.94685L43.4062 18.4111L42.5753 20.1605L34.1783 38.1791ZM30.4171 38.0479H34.0908L42.4441 20.073L43.275 18.3237L49.048 5.94685H45.3743L30.4171 38.0479Z" fill="white"/>
<path d="M45.1583 38.3971L33.3938 22.7402H29.5889L41.3534 38.3971H45.1583Z" fill="white"/>
<path d="M45.3326 38.4424H41.3528L41.309 38.3987L29.457 22.6543H33.4369L33.4806 22.698L45.3326 38.4424ZM41.3965 38.3112H45.0265L33.3931 22.8292H29.7632L41.3965 38.3112Z" fill="white"/>
<path d="M31.1625 0C14.1935 0 0.460938 13.7326 0.460938 30.7015C0.460938 37.3491 2.56019 43.472 6.14641 48.5014C6.88989 49.551 7.67711 50.5569 8.5518 51.4753L8.59553 51.5191L10.4324 47.5393L10.3886 47.4955C9.55769 46.4459 8.8142 45.3963 8.11445 44.2154C5.7528 40.2356 4.44077 35.5998 4.44077 30.6578C4.44077 15.9193 16.3802 3.93609 31.1625 3.93609C37.2415 3.93609 42.7958 5.90414 47.2567 9.35915L49.181 5.77294C44.1516 2.18672 37.8538 0 31.1625 0Z" fill="white"/>
<mask id="mask0_1157_811" style="mask-type:luminance" maskUnits="userSpaceOnUse" x="54" y="11" width="3" height="3">
<path d="M54.252 11.0215C54.8642 11.765 55.564 12.6397 56.1325 13.4706C55.564 12.5959 54.908 11.8087 54.252 11.0215Z" fill="white"/>
</mask>
<g mask="url(#mask0_1157_811)">
<path d="M57.0959 11.4601L55.7839 14.2154L53.291 12.9908L54.603 10.2793L57.0959 11.4601Z" fill="white"/>
</g>
<mask id="mask1_1157_811" style="mask-type:luminance" maskUnits="userSpaceOnUse" x="54" y="18" width="1" height="1">
<path d="M54.2959 18.1484C54.3396 18.2359 54.3834 18.2796 54.4271 18.3671C54.3834 18.2796 54.3396 18.1922 54.2959 18.1484Z" fill="white"/>
</mask>
<g mask="url(#mask1_1157_811)">
<path d="M54.4724 18.1929L54.3849 18.4116L54.21 18.3241L54.2974 18.1055L54.4724 18.1929Z" fill="white"/>
</g>
<path d="M56.5735 13.9508C56.4861 13.7759 56.3549 13.6447 56.2674 13.4698C55.6988 12.6388 54.9991 11.7641 54.3868 11.0206C54.3431 10.9769 54.2994 10.8894 54.2556 10.8457L53.6433 12.2015L52.3313 15.0879C52.9436 15.9189 53.9057 17.2309 54.4306 18.1931C54.4743 18.2805 54.518 18.3243 54.5618 18.4117C56.661 22.2166 57.8418 26.5901 57.8418 31.1822C57.8418 45.9207 45.9024 57.9039 31.1201 57.9039C25.3035 57.9039 19.9241 56.0233 15.507 52.8744L13.7139 56.5044C18.6558 59.9157 24.6912 61.8837 31.1201 61.8837C48.0891 61.8837 61.8217 48.1511 61.8217 31.1822C61.7342 24.8844 59.8099 18.8928 56.5735 13.9508Z" fill="white"/>
<path d="M46.9505 22.5211L47.6502 21.0778L49.487 16.9668C48.7436 15.9609 48.1313 14.5614 47.2129 13.7305L44.7637 19.0661L43.9765 20.728L35.667 38.4841H39.4719L46.9505 22.5211Z" fill="white"/>
<path d="M39.5572 38.4845H35.6211L44.7178 19.0227L47.167 13.5996L47.2107 13.6433C47.7792 14.2119 48.2603 14.9554 48.6977 15.6551C48.9601 16.0925 49.2225 16.5298 49.4849 16.8797V16.9234V16.9672L47.648 21.0782L39.5572 38.4845ZM35.8398 38.3533H39.5135L47.6043 21.0345L49.4412 16.9234C49.1787 16.5298 48.9163 16.1362 48.6539 15.6989C48.2166 14.9991 47.7792 14.2994 47.2544 13.7308L44.849 19.0227L44.0618 20.6846L35.8398 38.3533Z" fill="white"/>
<path d="M50.8863 14.126C50.0991 13.2076 49.2244 12.3329 48.306 11.502L47.6062 12.9889L46.7753 14.7383C47.6937 15.613 48.5247 16.5314 49.2681 17.581C52.1109 21.3859 53.7728 26.0655 53.7728 31.1824C53.7728 43.7342 43.5827 53.968 30.9872 53.968C25.258 53.968 20.0099 51.825 15.9863 48.3263C15.0679 47.4953 14.1932 46.6206 13.406 45.7022L11.8753 48.5012C11.8753 48.545 11.5254 48.9386 11.5254 48.9823C12.3563 49.857 13.4934 50.7754 14.4556 51.5189C18.9602 55.1926 24.6894 57.3793 30.9434 57.3793C45.3758 57.3793 57.0966 45.6585 57.0966 31.2262C57.1841 24.6223 54.8224 18.6744 50.8863 14.126Z" fill="white"/>
<path d="M54.5615 17.7985C53.993 16.8363 53.0308 15.5243 52.4623 14.6934V14.7371L49.1822 21.6471L48.4824 23.1341L41.3975 38.3099H45.2024L54.6927 17.9734C54.649 17.9297 54.6052 17.8422 54.5615 17.7985Z" fill="white"/>
<path d="M44.0655 18.9355L40.4355 21.5596L42.666 21.997L44.1967 23.2652L44.0655 18.9355Z" fill="#2B5BA8"/>
<path d="M48.5259 21.123L44.9834 23.6159L47.1701 24.097L48.5696 25.5402L48.5259 21.123Z" fill="#2B5BA8"/>
<path d="M42.8396 34.8555L40.959 39.0977" stroke="white" stroke-width="0.205552" stroke-miterlimit="10"/>
<path d="M75.0522 23.9723C74.9583 23.9972 74.7707 24.047 74.583 24.0968C74.3954 24.1466 74.2077 24.1964 73.9952 24.1524C73.7826 24.1083 73.6199 24.252 73.5012 24.183C73.3135 24.2328 73.2197 24.2577 73.1948 24.1639C73.101 24.1888 72.9822 24.1199 72.8635 24.051C72.7448 23.982 72.7199 23.8882 72.6701 23.7006C72.6203 23.5129 72.5705 23.3253 72.5207 23.1376C72.446 22.8561 72.4651 22.5498 72.4842 22.2434C72.5225 21.6306 72.4918 21.1366 72.3673 20.6675C72.2428 20.1984 72.237 19.7982 72.1623 19.5167C72.0627 19.1414 71.988 18.8599 71.8195 18.6033C71.7448 18.3219 71.5763 18.0653 71.5265 17.8776C71.4767 17.69 71.3331 17.5272 71.2833 17.3396C71.2334 17.1519 71.0898 16.9892 71.04 16.8015C70.9902 16.6139 70.9404 16.4262 70.8906 16.2386C70.8408 16.0509 70.8848 15.8384 70.835 15.6507C70.8733 15.038 70.9364 14.519 71.2121 14.0441C71.394 13.5941 71.6946 13.2131 72.089 12.8071C72.4145 12.5198 72.8588 12.3015 73.3968 12.0583C73.9349 11.815 74.4289 11.7844 74.9478 11.8475C75.348 11.8417 75.6544 11.8609 75.9857 11.9738C76.317 12.0868 76.5544 12.2246 76.7919 12.3625C77.0542 12.5941 77.1978 12.7569 77.3913 13.1073C77.5598 13.3639 77.5656 13.7641 77.5714 14.1643C77.602 14.6583 77.445 15.2021 77.2383 15.5583C77.0315 15.9145 76.7309 16.2956 76.3116 16.6077C75.8922 16.9199 75.5418 17.1133 75.0038 17.3565C74.5596 17.5748 73.9966 17.7242 73.4088 17.7798C73.4586 17.9675 73.6271 18.224 73.7018 18.5055C73.7765 18.787 73.8512 19.0685 73.9259 19.3499C74.0006 19.6314 74.0753 19.9129 74.0811 20.3131C74.0868 20.7133 74.1864 21.0886 74.0984 21.5137C74.1042 21.9139 74.085 22.2203 74.1597 22.5018C74.2344 22.7832 74.1904 22.9958 74.3091 23.0647C74.3589 23.2524 74.4777 23.3213 74.5026 23.4151C74.6213 23.484 74.74 23.553 74.8587 23.6219L75.0522 23.9723ZM72.7116 15.1527C72.6675 15.3653 72.7173 15.5529 72.7671 15.7406C72.8169 15.9282 72.8667 16.1159 72.9165 16.3035C72.9663 16.4912 73.0161 16.6788 73.1598 16.8416C73.2096 17.0292 73.3532 17.192 73.403 17.3796C73.7783 17.28 74.1287 17.0866 74.4791 16.8932C74.8295 16.6997 75.0612 16.4374 75.2239 16.2938C75.3867 16.1501 75.5934 15.794 75.7064 15.4627C75.8193 15.1314 75.8385 14.825 75.9265 14.3999C75.9705 14.1874 75.9207 13.9997 75.8709 13.8121C75.8211 13.6244 75.7713 13.4368 75.6277 13.274C75.4841 13.1113 75.3654 13.0423 75.2217 12.8796C75.103 12.8107 74.8905 12.7666 74.6779 12.7226C74.3715 12.7035 74.0901 12.7782 73.8335 12.9467C73.5769 13.1153 73.4142 13.2589 73.2763 13.4963C73.1385 13.7338 73.0006 13.9712 72.9815 14.2776C72.9624 14.584 72.7307 14.8463 72.7116 15.1527Z" fill="white"/>
<path d="M82.9846 15.3251C83.188 15.3372 83.4394 15.2298 83.8104 15.1704C84.1814 15.111 84.5524 15.0516 85.091 14.9206L85.1268 15.0044C84.8152 15.4348 84.4198 15.901 84.0602 16.451C83.7007 17.001 83.3411 17.551 83.0653 18.0652C83.2329 17.9936 83.5201 17.97 83.7715 17.8626C84.0229 17.7552 84.3101 17.7316 84.5615 17.6241C84.8129 17.5167 85.0163 17.5289 85.2677 17.4215C85.5191 17.3141 85.6387 17.3621 85.7583 17.4101C85.8421 17.3743 85.9617 17.4223 86.0813 17.4703C86.2009 17.5183 86.2367 17.6021 86.3083 17.7697C86.3799 17.9373 86.4515 18.1049 86.5589 18.3562C86.6663 18.6076 86.7257 18.9786 86.7851 19.3496L87.3679 22.5689C87.3557 22.7723 87.4273 22.9399 87.4989 23.1075C87.5705 23.2751 87.6901 23.3231 87.7739 23.2873C87.8577 23.2515 87.9773 23.2995 88.0611 23.2637C88.1449 23.2279 88.3483 23.2401 88.4679 23.2881C88.6713 23.3003 88.7551 23.2645 88.9585 23.2766C89.1619 23.2888 89.3295 23.2172 89.4491 23.2652C89.5093 22.9422 89.7728 22.6314 90.0722 22.4044C90.3716 22.1774 90.8264 22.0822 91.4008 22.035L91.3886 22.2384C91.3406 22.358 91.2088 22.5134 91.1966 22.7168C91.1486 22.8364 91.1364 23.0397 91.1242 23.2431C91.1479 23.5303 91.1357 23.7337 91.2431 23.9851C91.3505 24.2365 91.5059 24.3683 91.7451 24.4643L91.7329 24.6677C91.6491 24.7035 91.4457 24.6913 91.3619 24.7271C91.2781 24.7629 91.0747 24.7507 90.9909 24.7865C90.7875 24.7743 90.6679 24.7263 90.4645 24.7142C90.2611 24.702 90.1415 24.654 89.9861 24.5222C89.8665 24.4742 89.7111 24.3424 89.6395 24.1748C89.5679 24.0072 89.4125 23.8754 89.4247 23.672C88.6827 23.7909 88.0245 23.8739 87.5697 23.9691C87.115 24.0643 86.7082 24.0399 86.5048 24.0278C86.421 24.0636 86.3014 24.0156 86.1818 23.9676C86.0622 23.9196 86.0264 23.8358 85.9068 23.7878C85.7872 23.7398 85.7156 23.5722 85.6798 23.4884C85.6081 23.3208 85.5365 23.1532 85.5129 22.866L84.9538 19.9339C84.9302 19.6467 84.8228 19.3953 84.7512 19.2277C84.6796 19.0601 84.6079 18.8925 84.4525 18.7607C84.2971 18.6289 84.1775 18.5809 84.0579 18.533C83.9383 18.485 83.7349 18.4728 83.6153 18.4248C83.4119 18.4126 83.3281 18.4484 83.1247 18.4362C82.9214 18.424 82.7538 18.4956 82.5504 18.4834C82.3226 18.878 82.1306 19.3564 81.9028 19.751C81.6751 20.1456 81.5669 20.5882 81.4229 20.947C81.2789 21.3058 81.1349 21.6646 81.0748 21.9876C81.0146 22.3106 80.9186 22.5498 80.9902 22.7174C80.978 22.9208 81.0496 23.0884 81.0854 23.1722C81.1212 23.256 81.3604 23.352 81.5638 23.3642L81.5036 23.6872C81.2164 23.7108 81.0488 23.7824 80.8454 23.7702C80.642 23.758 80.5582 23.7938 80.4744 23.8296C80.3906 23.8654 80.271 23.8174 80.1872 23.8533C80.1035 23.8891 80.0676 23.8053 79.9839 23.8411C79.6967 23.8647 79.4575 23.7687 79.3859 23.6011C79.2304 23.4693 79.2068 23.1821 79.1832 22.8949C79.1596 22.6077 79.2678 22.1651 79.376 21.7225C79.4841 21.2799 79.6761 20.8015 79.9039 20.4069C80.0959 19.9285 80.2878 19.4501 80.5994 19.0197C80.911 18.5893 81.103 18.1109 81.4145 17.6805C81.7261 17.2501 81.9539 16.8555 82.1817 16.4609C82.4095 16.0663 82.673 15.7555 82.8886 15.5643C82.721 15.6359 82.6014 15.5879 82.4338 15.6595C82.2662 15.7311 82.1466 15.6831 81.979 15.7547C81.8114 15.8263 81.6919 15.7783 81.6081 15.8141C81.5243 15.8499 81.4047 15.8019 81.4047 15.8019C81.3209 15.8377 81.2851 15.7539 81.2013 15.7897C81.1175 15.8255 81.1654 15.7059 81.1296 15.6221C81.0938 15.5383 81.058 15.4545 81.1418 15.4187C81.106 15.3349 81.154 15.2153 81.1182 15.1315C81.1426 14.7247 81.0832 14.3538 81.0596 14.0666C81.036 13.7794 81.0482 13.576 81.0604 13.3726C81.0725 13.1692 81.0367 13.0854 81.0489 12.882C81.0611 12.6786 81.0611 12.6786 81.0253 12.5948C80.9895 12.511 80.9537 12.4272 80.8699 12.463C80.8341 12.3792 80.7503 12.415 80.6307 12.367L80.6071 12.0798C80.7747 12.0082 80.8943 12.0562 81.0619 11.9846C81.2295 11.913 81.3491 11.961 81.5167 11.8894C81.6843 11.8178 81.8039 11.8658 81.8877 11.83C81.9715 11.7942 82.0911 11.8422 82.1749 11.8063C82.2945 11.8543 82.3782 11.8185 82.4978 11.8665C82.6174 11.9145 82.6175 11.9145 82.6533 11.9983C82.6891 12.0821 82.7249 12.1659 82.6769 12.2855C82.7127 12.3693 82.7005 12.5727 82.6883 12.7761C82.7241 12.8599 82.6761 12.9795 82.6639 13.1829C82.6517 13.3863 82.6395 13.5897 82.6273 13.7931C82.6151 13.9965 82.6388 14.2837 82.6624 14.5709C82.9732 14.8345 82.961 15.0379 82.9846 15.3251Z" fill="white"/>
<path d="M94.8668 11.5265C94.9435 11.467 95.0797 11.4843 95.2159 11.5016C95.3521 11.5189 95.4288 11.4595 95.565 11.4768C95.778 11.4347 96.0503 11.4693 96.1865 11.4866C96.3227 11.5039 96.5951 11.5385 96.8675 11.5731C97.0631 11.6671 97.2587 11.7612 97.3776 11.9147C97.4965 12.0682 97.6154 12.2216 97.5808 12.494C97.6229 12.707 97.6056 12.8431 97.4521 12.962C97.3581 13.1577 97.2813 13.2171 97.1278 13.336C97.3408 13.2938 97.5537 13.2517 97.8261 13.2863C98.039 13.2442 98.3881 13.2193 98.6011 13.1772C98.814 13.1351 99.0269 13.0929 99.2399 13.0508C99.4528 13.0086 99.589 13.0259 99.589 13.0259C99.8019 12.9838 99.9976 13.0778 100.057 13.1546C100.116 13.2313 100.235 13.3848 100.201 13.6572C100.26 13.7339 100.183 13.7934 100.243 13.8701C100.302 13.9469 100.226 14.0063 100.208 14.1425C100.216 14.6278 100.087 15.0958 100.095 15.5811C100.102 16.0664 99.9736 16.5344 99.9811 17.0197L104.086 16.2958C104.069 16.432 104.052 16.5682 104.034 16.7044C104.017 16.8406 104 16.9768 104.059 17.0535C104.025 17.3259 104.126 17.6156 104.228 17.9052C104.329 18.1949 104.508 18.4251 104.686 18.6554L104.669 18.7916C104.379 18.8932 104.089 18.9947 103.876 19.0369C103.663 19.079 103.391 19.0444 103.195 18.9504C103 18.8563 102.804 18.7623 102.609 18.6682C102.49 18.5147 102.311 18.2845 102.133 18.0543C102.031 17.7646 101.989 17.5517 101.964 17.2025L99.7757 17.5472C99.714 18.5772 99.6523 19.6073 99.5907 20.6374C99.529 21.6674 99.4673 22.6975 99.4651 23.8043C99.4651 23.8043 99.4651 23.8043 99.4478 23.9405C99.4478 23.9405 99.5072 24.0172 99.4305 24.0767L99.4132 24.2128C99.3959 24.349 99.5148 24.5025 99.4975 24.6387C99.5569 24.7155 99.7525 24.8095 99.8887 24.8268L99.9136 25.1759C99.7006 25.2181 99.6239 25.2775 99.411 25.3197C99.198 25.3618 99.1213 25.4212 98.9851 25.4039C98.8489 25.3866 98.6954 25.5055 98.5592 25.4882C98.423 25.4709 98.3463 25.5304 98.2695 25.5898C98.0566 25.6319 97.861 25.5379 97.6654 25.4438C97.5465 25.2904 97.5638 25.1542 97.5216 24.9412L97.5389 24.805L97.5562 24.6689C97.6352 23.5026 97.6374 22.3958 97.6991 21.3657C97.7013 20.2589 97.8398 19.1694 97.9187 18.0032L95.6532 18.4073C95.6781 18.7564 95.6262 19.165 95.5916 19.4374C95.5569 19.7097 95.3862 19.9648 95.2154 20.2199C95.0446 20.475 94.7549 20.5765 94.4652 20.6781C94.1755 20.7797 93.7497 20.864 93.2644 20.8715L93.2222 20.6586C93.393 20.4035 93.4871 20.2079 93.5984 19.8761C93.7098 19.5442 93.6676 19.3313 93.7022 19.0589C93.7195 18.9228 93.6601 18.846 93.6179 18.6331C93.6352 18.4969 93.5164 18.3434 93.4569 18.2667L93.4148 18.0537L97.9458 17.2455C97.9977 16.837 98.0496 16.4284 98.0248 16.0793C97.9999 15.7301 98.1286 15.2621 98.1038 14.913C98.1211 14.7768 98.1384 14.6406 98.1557 14.5045C98.173 14.3683 98.1135 14.2915 98.0541 14.2148C97.9946 14.138 97.9352 14.0613 97.7396 13.9672C97.6034 13.9499 97.4078 13.8559 97.2716 13.8386C97.1354 13.8213 96.7268 13.7694 96.3777 13.7942C96.088 13.8958 95.9345 14.0147 95.5854 14.0395C95.2363 14.0644 95.0234 14.1065 94.7337 14.2081L94.751 14.0719C95.0753 13.6979 95.2039 13.2299 95.1791 12.8808C95.1369 12.6679 95.0948 12.455 94.9759 12.3015C94.857 12.148 94.6787 11.9177 94.4063 11.8831L94.8668 11.5265Z" fill="white"/>
<path d="M118.043 15.821C117.942 16.1561 117.916 16.4294 117.89 16.7027C117.864 16.976 117.899 17.3242 118.01 17.6106C118.12 17.897 118.169 18.1086 118.354 18.3332C117.993 18.5054 117.706 18.6159 117.433 18.5897C117.16 18.5635 117.023 18.5504 116.763 18.3875C116.503 18.2247 116.441 18.1498 116.256 17.9251C116.132 17.7754 116.022 17.489 115.973 17.2774C115.862 16.991 115.889 16.7177 115.915 16.4444L114.05 16.4725C113.887 16.7327 113.588 16.9798 113.363 17.1652C113.139 17.3505 112.777 17.5227 112.553 17.7081C112.191 17.8803 111.905 17.9908 111.482 18.0881C111.134 18.1237 110.772 18.2959 110.362 18.2566C110.411 18.4681 110.522 18.7546 110.57 18.9661C110.681 19.2525 110.729 19.464 110.765 19.8122C110.801 20.1604 110.911 20.4468 110.947 20.795C110.982 21.1432 110.943 21.5532 110.978 21.9014C110.939 22.3113 110.975 22.6595 111.023 22.8711C111.072 23.0826 111.046 23.3559 111.169 23.5057C111.218 23.7172 111.28 23.7921 111.342 23.867C111.403 23.9418 111.602 24.0298 111.739 24.0429L111.699 24.4529C111.563 24.4398 111.413 24.5633 111.201 24.612C110.99 24.6607 110.853 24.6476 110.642 24.6963C110.43 24.7449 110.293 24.7318 110.157 24.7187C110.02 24.7056 109.883 24.6925 109.809 24.7543C109.672 24.7412 109.61 24.6663 109.473 24.6532C109.337 24.6401 109.35 24.5035 109.301 24.2919C109.253 24.0804 109.266 23.9437 109.217 23.7322C109.168 23.5207 109.133 23.1725 109.172 22.7625C109.224 22.2159 109.14 21.6562 109.179 21.2462C109.157 20.7614 109.121 20.4132 108.949 20.0519C108.777 19.6906 108.803 19.4173 108.693 19.1309C108.582 18.8444 108.472 18.558 108.348 18.4083C108.3 18.1967 108.176 18.047 108.127 17.8355C108.079 17.6239 107.955 17.4742 107.906 17.2626C107.858 17.0511 107.809 16.8396 107.822 16.7029C107.773 16.4914 107.787 16.3547 107.813 16.0814C107.803 15.4599 107.992 14.9264 108.243 14.4677C108.494 14.0091 108.807 13.6253 109.181 13.3164C109.556 13.0076 109.992 12.7735 110.49 12.6144C110.988 12.4553 111.547 12.371 112.094 12.4234C112.442 12.3879 112.777 12.4889 113.112 12.59C113.447 12.6911 113.708 12.854 113.968 13.0168C114.228 13.1797 114.413 13.4043 114.524 13.6907C114.634 13.9771 114.67 14.3253 114.705 14.6735C114.754 14.8851 114.666 15.0835 114.653 15.2202C114.64 15.3568 114.552 15.5552 114.464 15.7537L118.043 15.821ZM109.593 15.4936C109.567 15.7669 109.554 15.9035 109.602 16.1151C109.651 16.3266 109.7 16.5381 109.687 16.6748C109.735 16.8863 109.859 17.0361 109.908 17.2476C109.956 17.4591 110.08 17.6089 110.128 17.8204C110.49 17.6482 110.851 17.476 111.137 17.3655C111.424 17.2551 111.723 17.008 111.886 16.7477C112.111 16.5624 112.287 16.1656 112.375 15.9671C112.476 15.632 112.577 15.2969 112.541 14.9488C112.493 14.7372 112.581 14.5388 112.532 14.3272C112.483 14.1157 112.435 13.9042 112.311 13.7544C112.188 13.6047 112.064 13.4549 111.927 13.4418C111.791 13.4287 111.592 13.3407 111.394 13.2528C111.046 13.2883 110.772 13.2621 110.548 13.4475C110.323 13.6328 110.098 13.8181 109.949 13.9417C109.786 14.2019 109.698 14.4003 109.597 14.7354C109.496 15.0705 109.619 15.2202 109.593 15.4936Z" fill="white"/>
<path d="M124.935 13.8356C124.986 13.3529 125.042 13.0074 124.971 12.9413C124.956 12.5298 124.946 12.2554 125.006 12.0471C124.93 11.8438 124.859 11.7778 124.651 11.7168L124.707 11.3713C124.844 11.3662 125.047 11.29 125.184 11.2849C125.322 11.2798 125.459 11.2748 125.662 11.1985C125.799 11.1935 125.936 11.1884 126.073 11.1833C126.211 11.1782 126.282 11.2443 126.348 11.1731C126.485 11.1681 126.556 11.2341 126.693 11.229C126.765 11.2951 126.836 11.3611 126.907 11.4272C126.978 11.4932 126.983 11.6304 126.988 11.7676C126.993 11.9048 126.998 12.042 126.937 12.2503C126.876 12.4586 126.953 12.6619 126.825 12.9413C126.836 13.2157 126.709 13.4952 126.79 13.8356C127.481 13.9474 127.969 14.1354 128.324 14.4657C128.68 14.7959 128.899 15.1313 128.919 15.68L132.338 15.2787L132.41 15.3447C132.343 15.4158 132.349 15.553 132.354 15.6902C132.359 15.8274 132.293 15.8985 132.298 16.0357C132.242 16.3812 132.323 16.7217 132.404 17.0621C132.486 17.4025 132.633 17.6718 132.847 17.87C132.511 18.0885 132.105 18.2409 131.759 18.185C131.551 18.124 131.343 18.0631 131.134 18.0021C130.926 17.9411 130.784 17.809 130.707 17.6058C130.565 17.4737 130.489 17.2704 130.342 17.0011C130.265 16.7979 130.255 16.5235 130.174 16.1831L128.736 16.305C128.68 16.6505 128.553 16.93 128.36 17.2806C128.167 17.6312 127.974 17.9817 127.71 18.2663C127.445 18.5508 127.115 18.9065 126.785 19.2622C126.455 19.6178 126.19 19.9024 125.789 20.192C125.926 20.1869 126.2 20.1767 126.338 20.1717C126.546 20.2326 126.683 20.2276 126.82 20.2225C127.303 20.2733 127.715 20.2581 127.994 20.3851C128.274 20.5121 128.482 20.5731 128.624 20.7052C128.766 20.8373 128.843 21.0405 128.99 21.3098C129 21.5842 129.081 21.9246 129.097 22.3362L129.214 23.637C129.224 23.9113 129.229 24.0485 129.305 24.2518C129.31 24.389 129.381 24.455 129.452 24.5211C129.523 24.5871 129.595 24.6532 129.666 24.7192C129.737 24.7853 129.874 24.7802 129.945 24.8462L129.889 25.1918C129.752 25.1968 129.615 25.2019 129.412 25.2781C129.274 25.2832 129.137 25.2883 128.934 25.3645C128.731 25.4407 128.66 25.3747 128.522 25.3798C128.385 25.3848 128.248 25.3899 128.248 25.3899C128.111 25.395 128.04 25.3289 127.903 25.334C127.831 25.268 127.694 25.273 127.689 25.1359C127.618 25.0698 127.542 24.8666 127.466 24.6633C127.389 24.4601 127.379 24.1857 127.369 23.9113L127.339 23.0882C127.318 22.5394 127.237 22.199 127.156 21.8586C127.008 21.5893 126.932 21.386 126.719 21.1879C126.576 21.0558 126.297 20.9287 126.023 20.9389C125.748 20.9491 125.54 20.8881 125.194 20.8322C124.463 21.4775 124 21.9754 123.675 22.4683C123.279 22.8951 123.157 23.3117 123.101 23.6572C123.04 23.8656 123.116 24.0688 123.187 24.1349C123.259 24.2009 123.401 24.333 123.746 24.3889L123.69 24.7344C123.416 24.7446 123.213 24.8208 123.004 24.7598C122.796 24.6989 122.73 24.77 122.593 24.7751C122.456 24.7802 122.319 24.7852 122.319 24.7852C122.181 24.7903 122.181 24.7903 122.181 24.7903C121.836 24.7344 121.628 24.6734 121.485 24.5413C121.343 24.4092 121.262 24.0688 121.318 23.7233C121.379 23.515 121.368 23.2406 121.495 22.9611C121.622 22.6817 121.749 22.4022 121.948 22.1888C122.146 21.9754 122.339 21.6248 122.603 21.3403C122.867 21.0558 123.132 20.7712 123.396 20.4867C123.726 20.131 124.056 19.7753 124.458 19.4857C124.788 19.13 125.118 18.7744 125.52 18.4848C125.108 18.5 124.696 18.5152 124.351 18.4593C123.731 18.4136 123.243 18.2256 122.888 17.8953C122.532 17.5651 122.38 17.1586 122.425 16.5387C122.41 16.1271 122.537 15.8477 122.659 15.431C122.786 15.1516 122.979 14.801 123.248 14.6536C123.447 14.4402 123.782 14.2218 124.051 14.0744C124.254 13.9982 124.595 13.9169 124.935 13.8356ZM125.911 17.9208C126.109 17.7074 126.307 17.494 126.439 17.3517C126.571 17.2094 126.632 17.0011 126.764 16.8588C126.825 16.6505 126.958 16.5082 126.952 16.371C126.947 16.2339 127.008 16.0255 127.003 15.8883C126.988 15.4768 126.978 15.2024 126.765 15.0042C126.551 14.8061 126.272 14.6791 125.86 14.6943C125.586 14.7045 125.311 14.7146 125.108 14.7908C124.905 14.867 124.702 14.9433 124.503 15.1567C124.371 15.2989 124.173 15.5123 124.112 15.7207C124.051 15.929 123.924 16.2084 123.934 16.4828C123.939 16.62 123.95 16.8944 123.955 17.0316C124.031 17.2348 124.036 17.372 124.178 17.5041C124.321 17.6362 124.463 17.7683 124.742 17.8954C125.225 17.9462 125.499 17.936 125.911 17.9208Z" fill="white"/>
<path d="M142.216 21.3454L138.875 22.8254C138.875 22.8254 138.832 22.9122 138.918 22.9555C138.918 22.9555 138.875 23.0424 138.962 23.0857C139.049 23.3461 138.919 23.6067 138.833 23.7805C138.746 23.9542 138.529 24.1715 138.356 24.302C138.182 24.4324 137.922 24.5196 137.748 24.65C137.488 24.7371 137.228 24.8243 136.967 24.9114L136.924 24.7812C137.01 24.6075 137.097 24.4337 137.097 24.2166C137.096 23.9996 137.183 23.8258 137.096 23.5655C137.096 23.3484 137.008 23.088 136.834 22.7843C136.747 22.524 136.487 22.394 136.226 22.2641L136.182 22.1339C136.486 21.9599 136.833 21.9161 137.181 21.8723C137.398 21.872 137.702 21.9151 137.919 21.9148C138.136 21.9146 138.353 22.1314 138.527 22.218L140.262 21.3477C139.958 20.8705 139.653 20.3933 139.349 19.9162C139.045 19.439 138.783 18.8749 138.566 18.441C138.305 17.877 138.13 17.3562 137.956 16.8355C137.782 16.3148 137.651 15.7071 137.607 15.1428C137.563 14.5785 137.562 13.9273 137.692 13.4496C137.821 12.9719 138.081 12.4507 138.385 12.0596C138.688 11.6686 139.165 11.3641 139.599 11.1465C140.076 10.8421 140.684 10.7111 141.335 10.7104C141.682 10.6665 141.986 10.7096 142.377 10.796C142.681 10.839 143.029 11.0123 143.289 11.1422C143.55 11.2721 143.767 11.4889 143.941 11.7926C144.115 12.0963 144.202 12.3567 144.203 12.7908C144.247 13.3551 144.204 13.8761 143.988 14.3105C143.771 14.7449 143.554 15.1792 143.164 15.527C142.774 15.8748 142.297 16.1792 141.733 16.4403C141.169 16.7015 140.518 16.9193 139.867 17.1371C140.041 17.6579 140.389 18.2653 140.694 18.9595C140.998 19.6537 141.694 20.4343 142.216 21.3454ZM139.473 14.6631C139.517 15.0103 139.561 15.3576 139.691 15.7482C139.735 16.0954 139.866 16.486 140.04 16.7896C141.038 16.3109 141.819 15.8325 142.209 15.2677C142.599 14.7028 142.858 13.9645 142.727 13.1398C142.727 12.9228 142.64 12.6624 142.596 12.5322C142.553 12.402 142.466 12.1416 142.292 12.055C142.161 11.8815 141.988 11.7949 141.901 11.7516C141.727 11.665 141.51 11.6652 141.293 11.6655C140.946 11.7093 140.555 11.84 140.338 12.0573C140.121 12.2746 139.905 12.492 139.775 12.7526C139.645 13.0132 139.558 13.404 139.515 13.708C139.472 14.0119 139.429 14.3158 139.473 14.6631Z" fill="white"/>
<path d="M163.775 22.7299C163.775 22.7299 163.559 22.7529 163.434 22.8098C163.218 22.8328 163.093 22.8897 162.877 22.9127C162.662 22.9356 162.446 22.9586 162.23 22.9815C162.014 23.0045 161.889 23.0614 161.798 23.0275C161.707 22.9935 161.616 22.9595 161.616 22.9595C161.616 22.9595 161.559 22.8346 161.502 22.7097C161.446 22.5847 161.423 22.3689 161.343 22.0281C161.32 21.8123 161.24 21.4715 161.217 21.2557C161.228 20.9489 161.205 20.7331 161.182 20.5172C161.159 20.3014 161.136 20.0855 161.17 19.9946C161.215 19.5969 161.169 19.1652 161.214 18.7675C161.259 18.3698 161.213 17.9381 161.224 17.6313C161.269 17.2336 161.28 16.9269 161.291 16.6201C161.302 16.3133 161.279 16.0975 161.347 15.9156C161.358 15.6088 161.335 15.393 161.256 15.0522C161.233 14.8364 161.153 14.4956 161.005 14.3367C160.891 14.0869 160.743 13.928 160.47 13.826C160.231 13.6331 160.016 13.6561 159.618 13.6111C159.186 13.657 158.845 13.7369 158.562 13.9417C158.278 14.1465 158.085 14.3853 157.858 14.7151C157.631 15.0448 157.495 15.4085 157.45 15.8062C157.405 16.2039 157.269 16.5677 157.224 16.9654C157.179 17.3631 157.134 17.7608 157.123 18.0675C157.112 18.3743 157.101 18.6811 157.124 18.8969C157.181 19.0219 157.113 19.2037 157.136 19.4196C157.159 19.6354 157.182 19.8512 157.171 20.158C157.194 20.3739 157.217 20.5897 157.206 20.8965C157.195 21.2033 157.252 21.3282 157.309 21.4531C157.389 21.7939 157.536 21.9528 157.593 22.0777C157.741 22.2366 157.923 22.3045 158.139 22.2816L158.128 22.5884C158.128 22.5884 158.003 22.6453 157.787 22.6683C157.571 22.6912 157.446 22.7482 157.197 22.862C156.981 22.885 156.765 22.908 156.549 22.9309C156.333 22.9539 156.117 22.9768 156.026 22.9429C155.936 22.9089 155.845 22.8749 155.754 22.8409C155.663 22.8069 155.606 22.682 155.549 22.5571C155.492 22.4322 155.469 22.2163 155.389 21.8756C155.366 21.6597 155.286 21.319 155.263 21.1031C155.274 20.7963 155.16 20.5465 155.171 20.2397C155.182 19.933 155.159 19.7171 155.136 19.5013C155.091 19.0696 155.136 18.6719 155.124 18.1493C155.078 17.7176 155.157 17.2289 155.236 16.7403C155.315 16.2517 155.36 15.854 155.53 15.3993C155.7 14.9447 155.836 14.5809 156.062 14.2512C156.289 13.9215 156.607 13.6257 156.925 13.33C157.243 13.0342 157.708 12.8974 158.265 12.7945C158.117 12.6356 158.003 12.3858 157.764 12.1929C157.526 12 157.412 11.7502 157.298 11.5004C157.093 11.2166 157.036 11.0916 156.922 10.8418C156.865 10.7169 156.808 10.592 156.876 10.4101C156.853 10.1943 157.046 9.95546 157.387 9.87556C157.512 9.81862 157.603 9.8526 157.728 9.79566C157.853 9.73872 157.944 9.77271 158.159 9.74975C158.375 9.72679 158.5 9.66984 158.716 9.64688C158.932 9.62393 159.057 9.56698 159.273 9.54402L159.353 9.88478C159.228 9.94173 159.103 9.99867 159.069 10.0896C159.035 10.1805 159.001 10.2715 158.933 10.4533C158.899 10.5442 158.956 10.6692 159.013 10.7941C159.07 10.919 159.127 11.0439 159.183 11.1688C159.536 11.6115 159.855 12.1452 160.208 12.5879C160.696 12.6669 161.185 12.7459 161.458 12.8479C161.73 12.9498 162.06 13.1767 162.265 13.4605C162.47 13.7443 162.584 13.9942 162.664 14.3349C162.743 14.6757 162.823 15.0164 162.778 15.4141C162.801 15.63 162.79 15.9368 162.813 16.1526C162.802 16.4594 162.825 16.6752 162.78 17.0729C162.769 17.3797 162.724 17.7774 162.713 18.0842C162.668 18.4819 162.714 18.9136 162.669 19.3113C162.715 19.743 162.67 20.1407 162.659 20.4474C162.648 20.7542 162.762 21.004 162.785 21.2199C162.808 21.4357 162.956 21.5946 163.012 21.7196C163.422 22.2872 163.513 22.3212 163.695 22.3891L163.775 22.7299Z" fill="white"/>
<path d="M166.894 20.8049C167.501 20.7138 167.996 20.7017 168.507 20.5939C169.019 20.4861 169.514 20.474 169.929 20.3495C170.345 20.225 170.761 20.1005 171.194 19.8804C171.626 19.6603 171.868 19.4068 172.205 19.17C172.463 18.8209 172.625 18.4551 172.804 17.9937C172.983 17.5322 172.988 16.9418 172.992 16.3513L172.894 14.6589L170.769 14.9777C170.798 15.3769 170.731 15.7594 170.681 16.0463C170.631 16.3332 170.485 16.6033 170.26 16.7612C170.036 16.9191 169.811 17.0769 169.491 17.2181C169.17 17.3593 168.771 17.3881 168.276 17.4003L168.31 17.209C168.439 17.0345 168.585 16.7643 168.73 16.4941C168.78 16.2072 168.83 15.9203 168.864 15.7291C168.88 15.6335 168.818 15.4255 168.835 15.3299C168.852 15.2343 168.789 15.0263 168.71 14.914L168.648 14.706L172.977 14.1807L172.825 11.0994C172.859 10.9082 172.78 10.7959 172.701 10.6835C172.622 10.5712 172.543 10.4589 172.335 10.5211L172.227 10.0096C172.435 9.94738 172.531 9.96407 172.739 9.90183C172.947 9.8396 173.042 9.85629 173.155 9.77736C173.267 9.69843 173.458 9.73182 173.554 9.74851C173.649 9.76521 173.762 9.68628 173.857 9.70297C174.049 9.73636 174.24 9.76975 174.336 9.78644C174.415 9.89876 174.493 10.0111 174.443 10.298L174.607 13.8741L178.936 13.3488C178.92 13.4444 178.886 13.6357 178.87 13.7313C178.853 13.8269 178.82 14.0182 178.898 14.1305C178.944 14.4341 178.99 14.7376 179.052 14.9456C179.097 15.2492 179.255 15.4738 179.509 15.7152L179.588 15.8275C179.267 15.9686 178.964 16.0142 178.772 15.9808C178.565 16.043 178.278 15.993 178.103 15.8639C177.912 15.8306 177.737 15.7015 177.579 15.4769C177.405 15.3479 177.247 15.1232 177.201 14.8197C177.139 14.6117 176.998 14.2914 177.048 14.0046L174.827 14.3067L174.893 16.1904C174.888 16.7808 174.9 17.2756 174.738 17.6415C174.655 18.1196 174.492 18.4854 174.251 18.7389C173.993 19.088 173.751 19.3415 173.51 19.595C173.173 19.8318 172.948 19.9897 172.612 20.2265C172.291 20.3676 171.971 20.5088 171.651 20.65C171.33 20.7912 171.027 20.8367 170.628 20.8655C170.324 20.9111 170.021 20.9566 169.717 21.0022C169.413 21.0477 169.222 21.0143 169.014 21.0766C168.997 21.1722 168.997 21.1722 169.076 21.2845C169.06 21.3802 169.06 21.3802 169.043 21.4758C169.072 21.875 169.022 22.1619 168.972 22.4487C168.922 22.7356 168.776 23.0058 168.647 23.1804C168.518 23.3549 168.293 23.5128 168.085 23.575C167.877 23.6373 167.669 23.6995 167.366 23.7451C167.27 23.7284 167.175 23.7117 166.983 23.6783C166.888 23.6616 166.696 23.6282 166.601 23.6115C166.747 23.3413 166.909 22.9755 166.959 22.6886C167.009 22.4017 167.059 22.1149 167.03 21.7157C167.064 21.5244 167.001 21.3165 166.923 21.2041C166.844 21.0918 166.86 20.9962 166.894 20.8049Z" fill="white"/>
<path d="M185.894 22.0316C185.894 21.9345 185.894 21.9345 185.894 21.8375C185.894 21.7404 185.894 21.7404 185.894 21.6433C185.991 20.4784 186.088 19.4106 186.185 18.3428C186.282 17.275 186.379 16.1101 186.476 15.0423L184.147 15.3335C184.147 15.7218 184.147 16.1101 184.049 16.4014C183.952 16.6926 183.855 16.9838 183.661 17.1779C183.467 17.3721 183.176 17.5662 182.885 17.6633C182.593 17.7604 182.205 17.8575 181.72 17.8575V17.6633C181.914 17.4692 182.011 17.1779 182.108 16.8867C182.205 16.5955 182.205 16.3043 182.205 16.0131C182.205 15.916 182.205 15.7218 182.108 15.6248C182.011 15.5277 182.011 15.3335 182.011 15.2365V15.0423L186.573 14.4599L186.67 13.1979L186.768 11.936C186.768 11.8389 186.768 11.7418 186.768 11.6448C186.768 11.4506 186.67 11.3535 186.67 11.2565C186.573 11.1594 186.476 11.0623 186.282 11.0623V10.674C186.476 10.674 186.573 10.577 186.768 10.577C186.962 10.577 187.059 10.4799 187.253 10.4799C187.447 10.4799 187.544 10.3828 187.641 10.3828C187.738 10.3828 187.835 10.3828 187.932 10.3828C188.127 10.3828 188.321 10.3828 188.418 10.4799C188.515 10.577 188.612 10.7711 188.612 10.9653C188.612 11.0623 188.612 11.0623 188.612 11.1594C188.612 11.2565 188.612 11.3535 188.612 11.3535C188.515 11.8389 188.515 12.3243 188.418 12.8096C188.321 13.295 188.321 13.7804 188.321 14.2657L192.495 13.6833C192.495 13.7804 192.495 13.9745 192.495 14.0716C192.495 14.1687 192.495 14.3628 192.495 14.4599C192.495 14.7511 192.592 15.0423 192.689 15.3335C192.786 15.6248 192.883 15.916 193.077 16.1101V16.3043C192.786 16.4014 192.495 16.4984 192.301 16.4984C192.107 16.4984 191.815 16.4984 191.621 16.4014C191.427 16.3043 191.233 16.2072 191.039 16.0131C190.845 15.8189 190.748 15.6248 190.65 15.4306C190.553 15.2365 190.456 14.9453 190.456 14.557L188.321 14.8482C188.224 15.916 188.127 16.9838 188.029 17.9545C187.932 18.9253 187.835 19.9931 187.835 21.0609C187.835 21.1579 187.835 21.255 187.835 21.3521C187.835 21.4492 187.835 21.5462 187.835 21.6433C187.835 21.7404 187.835 21.8375 187.932 21.8375C188.029 21.9345 188.127 21.9345 188.224 21.9345C188.418 21.9345 188.709 21.9345 189 21.8375C189.389 21.8375 189.777 21.7404 190.165 21.6433C190.262 20.8667 191.039 20.4784 192.204 20.2843V20.4784C192.107 20.6726 192.009 20.7697 192.009 20.9638C192.009 21.1579 191.912 21.3521 192.009 21.5462C192.009 21.8375 192.107 22.0316 192.204 22.3228C192.301 22.517 192.495 22.7111 192.689 22.8082V23.0023C192.592 23.0023 192.398 23.0994 192.301 23.0994C192.204 23.0994 192.009 23.0994 191.912 23.0994C191.718 23.0994 191.524 23.0994 191.33 23.0994C191.136 23.0994 190.942 23.0023 190.845 22.9053C190.65 22.8082 190.553 22.7111 190.456 22.614C190.359 22.517 190.262 22.3228 190.165 22.0316C189.389 22.2257 188.806 22.3228 188.224 22.4199C187.738 22.517 187.253 22.517 186.962 22.614C186.67 22.614 186.379 22.614 186.282 22.4199C185.991 22.4199 185.894 22.2257 185.894 22.0316Z" fill="white"/>
<path d="M205.281 23.5848C205.184 23.5848 205.087 23.5848 204.893 23.5848C204.699 23.5848 204.505 23.5848 204.311 23.5848C204.117 23.5848 203.922 23.5848 203.728 23.5848C203.534 23.5848 203.34 23.5848 203.243 23.5848C203.146 23.5848 203.049 23.5848 203.049 23.4877C203.049 23.3906 202.952 23.2936 202.952 23.1965C202.952 23.0023 202.855 22.8082 202.855 22.517C202.855 22.2257 202.855 21.9345 202.855 21.7404C202.855 21.4492 202.855 21.255 202.855 20.9638C202.855 20.7696 202.855 20.5755 202.855 20.4784C202.855 20.0901 202.952 19.7018 202.952 19.3135C203.049 18.9253 203.049 18.537 203.146 18.1487C203.243 17.7604 203.243 17.4692 203.243 17.1779C203.243 16.8867 203.34 16.6926 203.34 16.4984C203.34 16.2072 203.34 15.916 203.34 15.7218C203.34 15.4306 203.243 15.2365 203.146 14.9453C203.049 14.7511 202.855 14.557 202.661 14.3628C202.466 14.1687 202.175 14.0716 201.884 14.0716C201.496 14.0716 201.107 14.0716 200.816 14.2657C200.525 14.4599 200.234 14.654 200.04 14.9453C199.845 15.2365 199.651 15.6248 199.554 15.916C199.457 16.3043 199.36 16.6926 199.263 17.0809C199.166 17.4692 199.166 17.8575 199.069 18.1487C199.069 18.537 198.972 18.8282 198.972 19.0223C198.972 19.2165 198.972 19.4106 198.972 19.6048C198.972 19.7989 198.972 20.0901 198.972 20.2843C198.972 20.5755 198.972 20.7696 198.972 20.9638C198.972 21.1579 198.972 21.3521 198.972 21.5462C198.972 21.8375 199.069 22.0316 199.263 22.2257C199.457 22.4199 199.554 22.4199 199.845 22.517L199.748 22.9053C199.651 22.9053 199.554 22.9053 199.36 23.0023C199.166 23.0023 198.972 23.0994 198.778 23.0994C198.583 23.0994 198.292 23.0994 198.098 23.0994C197.904 23.0994 197.71 23.0994 197.613 23.0994C197.516 23.0994 197.419 23.0994 197.419 23.0023C197.419 22.9053 197.321 22.9053 197.224 22.7111C197.224 22.517 197.127 22.3228 197.127 22.0316C197.127 21.7404 197.127 21.5462 197.03 21.255C197.03 20.9638 197.03 20.6726 197.03 20.3814C197.03 20.0901 197.03 19.896 197.03 19.6048C197.03 19.2165 197.127 18.7311 197.127 18.2457C197.224 17.7604 197.224 17.3721 197.419 16.8867C197.516 16.4014 197.71 16.0131 197.807 15.6248C198.001 15.2365 198.195 14.8482 198.486 14.557C198.778 14.2657 199.069 13.9745 199.457 13.7804C199.845 13.5862 200.331 13.3921 200.816 13.295C200.719 13.1009 200.525 12.8096 200.428 12.6155C200.331 12.4213 200.137 12.1301 200.04 11.936C199.942 11.6448 199.845 11.4506 199.748 11.2565C199.651 11.0623 199.651 10.9653 199.651 10.8682C199.651 10.577 199.845 10.4799 200.234 10.3828C200.331 10.3828 200.428 10.3828 200.525 10.3828C200.622 10.3828 200.816 10.3828 201.01 10.3828C201.204 10.3828 201.301 10.3828 201.496 10.3828C201.69 10.3828 201.884 10.3828 201.981 10.3828L202.078 10.7711C201.981 10.7711 201.884 10.8682 201.787 10.9653C201.69 11.0623 201.69 11.1594 201.593 11.2565C201.593 11.3535 201.593 11.4506 201.593 11.5477C201.593 11.6448 201.69 11.7418 201.787 11.936C202.078 12.4213 202.369 12.9067 202.661 13.3921C203.146 13.4892 203.534 13.5862 203.922 13.7804C204.214 13.9745 204.505 14.1687 204.602 14.4599C204.796 14.7511 204.893 15.0423 204.893 15.3335C204.893 15.6248 204.893 16.0131 204.893 16.4014C204.893 16.5955 204.796 16.8867 204.796 17.1779C204.796 17.4692 204.699 17.7604 204.699 18.0516C204.602 18.3428 204.602 18.7311 204.505 19.1194C204.408 19.5077 204.408 19.896 204.408 20.3814C204.408 20.8667 204.311 21.255 204.311 21.5462C204.311 21.8375 204.311 22.1287 204.311 22.3228C204.311 22.517 204.408 22.7111 204.505 22.8082C204.602 22.9053 204.699 23.0023 204.893 23.0994L205.281 23.5848Z" fill="white"/>
<path d="M210.607 23.1978C210.578 23.1052 210.578 23.1052 210.641 22.9834C210.612 22.8909 210.612 22.8909 210.675 22.7691C210.725 21.634 210.775 20.4989 210.854 19.4563C210.932 18.4138 210.982 17.2787 211.032 16.1435L208.722 16.5655C208.746 16.965 208.741 17.2719 208.643 17.608C208.546 17.9441 208.419 18.1876 208.292 18.4311C208.165 18.6746 207.887 18.762 207.546 18.9713C207.205 19.1805 206.805 19.2045 206.377 19.1359L206.318 18.9508C206.445 18.7073 206.572 18.4638 206.699 18.2203C206.826 17.9768 206.831 17.6698 206.743 17.3921C206.714 17.2995 206.656 17.1143 206.719 16.9925C206.69 16.9 206.632 16.7148 206.603 16.6222L206.544 16.437L211.1 15.7149L211.213 14.458L211.327 13.2011C211.297 13.1085 211.361 12.9868 211.332 12.8942C211.273 12.709 211.244 12.6164 211.186 12.4312C211.157 12.3386 211.035 12.2752 210.821 12.2409L210.797 11.8414C210.982 11.7831 211.074 11.7539 211.26 11.6956C211.445 11.6373 211.537 11.6081 211.723 11.5498C211.908 11.4915 212 11.4624 212.093 11.4332C212.185 11.4041 212.278 11.3749 212.371 11.3458C212.585 11.38 212.77 11.3217 212.828 11.5069C212.887 11.6921 213.009 11.7555 212.974 11.9699C213.003 12.0625 213.003 12.0625 212.94 12.1842C212.877 12.3059 212.969 12.2768 212.906 12.3985C212.866 12.9198 212.798 13.3485 212.758 13.8698C212.719 14.391 212.65 14.8197 212.611 15.341L216.767 14.6428C216.704 14.7646 216.733 14.8572 216.699 15.0715C216.728 15.1641 216.694 15.3784 216.723 15.471C216.718 15.778 216.805 16.0557 216.893 16.3335C216.98 16.6113 217.16 16.8599 217.311 17.0159L217.369 17.2011C217.092 17.2886 216.814 17.3761 216.629 17.4344C216.414 17.4001 216.136 17.4876 215.986 17.3315C215.835 17.1755 215.62 17.1412 215.377 17.0143C215.226 16.8583 215.075 16.7023 214.988 16.4245C214.9 16.1467 214.813 15.869 214.818 15.562L212.693 15.9257C212.614 16.9682 212.536 18.0107 212.457 19.0533C212.378 20.0958 212.392 21.1092 212.313 22.1517C212.342 22.2443 212.279 22.3661 212.308 22.4587C212.337 22.5512 212.274 22.673 212.274 22.673C212.303 22.7656 212.332 22.8582 212.361 22.9508C212.39 23.0434 212.483 23.0142 212.697 23.0485C212.882 22.9902 213.189 22.9953 213.496 23.0004C213.896 22.9764 214.173 22.8889 214.666 22.8358C214.832 22.071 215.514 21.6526 216.684 21.4879L216.742 21.6731C216.679 21.7948 216.644 22.0092 216.61 22.2235C216.576 22.4378 216.541 22.6522 216.6 22.8374C216.595 23.1443 216.653 23.3295 216.833 23.5781C216.92 23.8559 217.164 23.9827 217.378 24.017L217.344 24.2314C217.251 24.2605 217.066 24.3188 216.974 24.348C216.881 24.3771 216.696 24.4354 216.574 24.372C216.389 24.4303 216.175 24.396 215.96 24.3618C215.746 24.3275 215.624 24.264 215.41 24.2298C215.195 24.1955 215.137 24.0103 215.015 23.9469C214.865 23.7908 214.806 23.6056 214.748 23.4205C213.978 23.5611 213.33 23.7652 212.838 23.8184C212.346 23.8716 211.883 24.0173 211.576 24.0122C211.269 24.0071 211.055 23.9728 210.811 23.8459C210.724 23.5682 210.665 23.383 210.607 23.1978Z" fill="white"/>
<path d="M221.259 18.5816C221.334 18.0205 221.409 17.4595 221.612 16.949C221.814 16.4386 222.055 16.0173 222.474 15.519C222.258 15.5069 222.079 15.5839 221.863 15.5717C221.646 15.5596 221.557 15.5981 221.468 15.6366C221.251 15.6244 221.213 15.5353 221.174 15.4462C221.136 15.3571 221.148 15.1404 221.121 14.8345C221.133 14.6178 221.146 14.4011 221.119 14.0952C221.131 13.8785 221.105 13.5727 221.117 13.356C221.129 13.1392 221.141 12.9225 221.103 12.8334C221.154 12.7058 221.115 12.6167 221.115 12.6167C221.139 12.1832 221.024 11.9159 221.036 11.6992C220.959 11.5209 220.831 11.4703 220.704 11.4197L220.677 11.1138C220.856 11.0369 220.945 10.9984 221.162 11.0105C221.378 11.0226 221.467 10.9841 221.646 10.9072C221.824 10.8302 221.951 10.8808 222.041 10.8423C222.13 10.8038 222.257 10.8544 222.346 10.816C222.435 10.7775 222.563 10.8281 222.691 10.8787C222.818 10.9293 222.818 10.9293 222.857 11.0185C222.895 11.1076 222.934 11.1967 222.883 11.3243C222.922 11.4134 222.91 11.6301 222.897 11.8469C222.936 11.936 222.885 12.0636 222.912 12.3694C222.899 12.5861 222.926 12.892 222.863 13.2363C222.889 13.5421 222.827 13.8865 222.853 14.1923C222.879 14.4981 222.817 14.8425 222.804 15.0592C223.212 14.7776 223.619 14.4961 224.153 14.2651C224.688 14.0342 225.3 13.9814 225.911 13.9287C226.523 13.876 227.084 13.9509 227.467 14.1028C227.85 14.2547 228.182 14.5341 228.387 14.763C228.63 15.081 228.745 15.3483 228.81 15.7433C228.875 16.1382 228.901 16.4441 228.966 16.839C228.954 17.0557 228.98 17.3616 228.968 17.5783C228.956 17.795 228.982 18.1009 228.881 18.3561C228.78 18.6113 228.845 19.0063 228.871 19.3121C228.897 19.6179 228.873 20.0514 228.887 20.5739C228.863 21.0074 228.928 21.4023 228.954 21.7082C228.981 22.014 229.007 22.3199 229.084 22.4981C229.161 22.6763 229.238 22.8545 229.315 23.0328C229.392 23.211 229.609 23.2232 229.736 23.2738L229.763 23.5796C229.674 23.6181 229.584 23.6566 229.368 23.6445C229.189 23.7214 228.973 23.7093 228.794 23.7863C228.616 23.8633 228.4 23.8511 228.183 23.839C227.966 23.8269 227.788 23.9039 227.788 23.9039C227.699 23.9423 227.66 23.8532 227.533 23.8026C227.494 23.7135 227.456 23.6244 227.417 23.5353C227.34 23.357 227.352 23.1403 227.237 22.873C227.21 22.5671 227.133 22.3889 227.107 22.0831C227.081 21.7772 227.093 21.5605 227.105 21.3438C227.117 21.127 227.04 20.9488 227.091 20.8212C227.026 20.4262 227.089 20.0819 227.113 19.6485C227.137 19.215 227.111 18.9092 227.174 18.5649C227.147 18.259 227.21 17.9147 227.184 17.6088C227.157 17.303 227.169 17.0863 227.22 16.9587C227.232 16.742 227.206 16.4361 227.18 16.1303C227.153 15.8244 227.076 15.6462 226.961 15.3789C226.845 15.1115 226.679 14.9718 226.424 14.8705C226.169 14.7693 225.913 14.668 225.48 14.6438C225.047 14.6195 224.69 14.7735 224.334 14.9274C224.016 15.1705 223.787 15.3751 223.596 15.6688C223.406 15.9625 223.216 16.2562 223.191 16.6897C223.04 17.0725 222.977 17.4168 222.953 17.8502L224.137 17.6557L224.176 17.7448C223.884 18.2937 223.593 18.8427 223.429 19.4422C223.265 20.0417 223.19 20.6028 223.153 21.253C223.129 21.6864 223.232 22.1705 223.348 22.4378C223.463 22.7052 223.54 22.8834 223.707 23.0232C223.873 23.1629 224 23.2135 224.255 23.3148L224.282 23.6206C224.193 23.6591 224.104 23.6976 223.925 23.7746C223.747 23.8516 223.53 23.8394 223.352 23.9164C223.174 23.9934 222.957 23.9813 222.69 24.0967C222.473 24.0846 222.295 24.1616 222.206 24.2001C222.117 24.2386 221.989 24.1879 221.989 24.1879C221.989 24.1879 221.823 24.0482 221.784 23.9591C221.669 23.6917 221.515 23.3353 221.489 23.0294C221.462 22.7236 221.397 22.3286 221.371 22.0228C221.318 21.4111 221.393 20.8501 221.557 20.2505C221.721 19.651 221.924 19.1405 222.126 18.6301L221.259 18.5816Z" fill="white"/>
<path d="M242.015 24.2108C241.929 24.2565 241.844 24.3022 241.627 24.3081C241.41 24.3139 241.239 24.4053 241.022 24.4112C240.805 24.417 240.588 24.4229 240.416 24.5143C240.199 24.5202 240.114 24.5659 239.982 24.526C239.897 24.5717 239.851 24.4861 239.805 24.4005C239.76 24.3148 239.714 24.2292 239.668 24.1436C239.577 23.9723 239.571 23.7553 239.519 23.4527C239.468 23.1501 239.462 22.9331 239.41 22.6305C239.359 22.3279 239.353 22.1109 239.347 21.8939C239.341 21.677 239.335 21.46 239.29 21.3744C239.278 20.9404 239.312 20.592 239.3 20.1581C239.289 19.7241 239.323 19.3758 239.357 19.0274C239.391 18.6791 239.425 18.3307 239.373 18.0281C239.408 17.6798 239.402 17.4628 239.442 17.3314C239.436 17.1145 239.47 16.7661 239.418 16.4635C239.367 16.1609 239.361 15.9439 239.224 15.687C239.086 15.4302 238.909 15.3046 238.732 15.1791C238.555 15.0536 238.292 14.9738 237.944 14.9397C237.51 14.9514 237.208 15.003 236.911 15.2715C236.654 15.4087 236.403 15.7629 236.192 15.9857C236.026 16.2942 235.861 16.6026 235.741 16.9967C235.621 17.3907 235.587 17.7391 235.513 18.2188C235.479 18.5671 235.491 19.0011 235.457 19.3494C235.423 19.6978 235.475 20.0004 235.48 20.2174C235.44 20.3487 235.446 20.5657 235.452 20.7827C235.458 20.9997 235.464 21.2167 235.515 21.5193C235.567 21.8219 235.573 22.0389 235.579 22.2559C235.584 22.4728 235.59 22.6898 235.636 22.7754C235.688 23.0781 235.779 23.2493 235.956 23.3748C236.133 23.5004 236.31 23.6259 236.527 23.62L236.493 23.9684C236.408 24.0141 236.322 24.0598 236.105 24.0657C235.888 24.0715 235.717 24.163 235.5 24.1688C235.283 24.1746 235.112 24.2661 234.895 24.2719C234.678 24.2778 234.461 24.2836 234.375 24.3293C234.289 24.3751 234.244 24.2894 234.112 24.2495C233.981 24.2097 233.935 24.124 233.975 23.9927C233.884 23.8214 233.878 23.6044 233.826 23.3018C233.775 22.9992 233.769 22.7822 233.717 22.4796C233.666 22.177 233.66 21.96 233.608 21.6574C233.557 21.3548 233.551 21.1378 233.545 20.9208C233.533 20.4869 233.522 20.0529 233.596 19.5732C233.584 19.1392 233.658 18.6595 233.732 18.1798C233.806 17.7001 233.926 17.3061 234.045 16.912C234.165 16.5179 234.37 16.0781 234.667 15.8096C234.918 15.4554 235.215 15.1868 235.597 14.8726C236.025 14.6439 236.368 14.461 236.927 14.2722C236.79 14.0153 236.613 13.8898 236.476 13.6329C236.339 13.3761 236.116 13.1649 236.024 12.9937C235.887 12.7368 235.75 12.4799 235.704 12.3943C235.659 12.3086 235.653 12.0917 235.607 12.006C235.601 11.7891 235.812 11.5662 236.115 11.5147C236.201 11.4689 236.286 11.4232 236.418 11.4631C236.549 11.503 236.72 11.4115 236.851 11.4514C237.068 11.4456 237.154 11.3999 237.371 11.394C237.588 11.3882 237.674 11.3425 237.891 11.3366L237.988 11.7249C237.902 11.7706 237.731 11.8621 237.645 11.9078C237.56 11.9535 237.52 12.0849 237.526 12.3019C237.572 12.3875 237.532 12.5189 237.577 12.6045C237.623 12.6901 237.715 12.8614 237.76 12.947C238.035 13.4607 238.395 13.9288 238.755 14.3968C239.234 14.4708 239.714 14.5447 240.023 14.7101C240.331 14.8756 240.554 15.0867 240.822 15.3835C240.96 15.6404 241.142 15.9829 241.194 16.2855C241.246 16.5881 241.343 16.9763 241.309 17.3247C241.315 17.5416 241.235 17.8044 241.286 18.107C241.292 18.324 241.258 18.6723 241.224 19.0206C241.19 19.369 241.156 19.7173 241.122 20.0657C241.088 20.414 241.1 20.848 241.111 21.2819C241.123 21.7159 241.135 22.1499 241.055 22.4126C241.106 22.7152 241.027 22.9779 241.164 23.2348C241.17 23.4518 241.261 23.623 241.438 23.7486C241.53 23.9198 241.661 23.9597 241.924 24.0395L242.015 24.2108Z" fill="white"/>
<path d="M259.671 14.739C259.882 14.6901 260.229 14.6516 260.514 14.5432C260.799 14.4348 261.357 14.3474 261.842 14.3194L261.905 14.3894C261.524 14.8163 261.143 15.2432 260.751 15.7995C260.358 16.3558 260.04 16.8527 259.711 17.479C259.922 17.43 260.207 17.3216 260.417 17.2726C260.628 17.2237 260.913 17.1152 261.261 17.0768C261.545 16.9684 261.756 16.9194 262.03 16.9405C262.241 16.8915 262.452 16.8425 262.588 16.8531C262.725 16.8636 262.862 16.8741 262.925 16.9441C262.988 17.0141 263.125 17.0246 263.176 17.2241C263.302 17.3641 263.354 17.5635 263.468 17.833C263.583 18.1025 263.624 18.4314 263.727 18.8303L264.418 22.0113C264.47 22.2108 264.459 22.3402 264.522 22.4102C264.584 22.4802 264.573 22.6097 264.636 22.6797C264.699 22.7497 264.762 22.8197 264.899 22.8302C264.962 22.9002 265.098 22.9107 265.172 22.8513L265.213 23.1802C265.076 23.1697 264.928 23.2886 264.791 23.2781C264.655 23.2676 264.444 23.3165 264.37 23.376C264.296 23.4355 264.085 23.4844 263.948 23.4739C263.811 23.4634 263.737 23.5229 263.675 23.4529C263.538 23.4424 263.401 23.4319 263.401 23.4319C263.264 23.4213 263.201 23.3513 263.138 23.2813C263.075 23.2113 262.95 23.0714 262.961 22.9419C262.909 22.7424 262.857 22.543 262.806 22.3435L262.229 19.432C262.189 19.103 262.137 18.9036 261.948 18.6936C261.897 18.4941 261.771 18.3541 261.645 18.2141C261.519 18.0741 261.383 18.0636 261.246 18.0531C261.109 18.0426 260.909 17.9621 260.772 17.9516C260.636 17.941 260.425 17.99 260.288 17.9795C260.077 18.0284 259.94 18.0179 259.729 18.0669C259.485 18.5042 259.241 18.9416 259.134 19.3895C259.026 19.8374 258.782 20.2748 258.612 20.6527C258.442 21.0306 258.346 21.349 258.25 21.6674C258.153 21.9858 258.131 22.2448 258.183 22.4442C258.235 22.6437 258.223 22.7732 258.349 22.9132C258.412 22.9832 258.612 23.0637 258.885 23.0847L258.926 23.4137C258.715 23.4626 258.442 23.4416 258.231 23.4905C258.02 23.5395 257.883 23.529 257.746 23.5185C257.609 23.5079 257.535 23.5674 257.473 23.4974C257.399 23.5569 257.336 23.4869 257.336 23.4869C256.988 23.5253 256.788 23.4448 256.6 23.2348C256.474 23.0948 256.36 22.8254 256.382 22.5664C256.341 22.2375 256.375 21.8491 256.619 21.4117C256.863 20.9743 256.896 20.5859 257.078 20.0785C257.259 19.5712 257.503 19.1338 257.821 18.637C258.139 18.1401 258.383 17.7027 258.628 17.2654C258.872 16.828 259.179 16.4606 259.423 16.0232C259.667 15.5859 259.963 15.348 260.122 15.0995C259.985 15.089 259.774 15.138 259.638 15.1274C259.501 15.1169 259.29 15.1659 259.153 15.1554C259.016 15.1448 258.805 15.1938 258.731 15.2533C258.595 15.2428 258.521 15.3022 258.521 15.3022C258.384 15.2917 258.384 15.2917 258.321 15.2217C258.258 15.1517 258.258 15.1517 258.195 15.0817C258.132 15.0117 258.206 14.9523 258.143 14.8823C258.155 14.7528 258.092 14.6828 258.103 14.5533C258.073 14.0949 258.033 13.766 258.055 13.507C258.077 13.2481 258.099 12.9891 258.048 12.7897C257.996 12.5902 258.007 12.4607 258.018 12.3313C258.029 12.2018 257.966 12.1318 257.978 12.0023C257.989 11.8728 257.852 11.8623 257.852 11.8623C257.789 11.7923 257.715 11.8518 257.652 11.7818L257.612 11.4529C257.822 11.4039 257.959 11.4144 258.107 11.2955C258.318 11.2465 258.455 11.257 258.529 11.1976C258.666 11.2081 258.876 11.1591 258.95 11.0996C259.087 11.1102 259.161 11.0507 259.298 11.0612C259.435 11.0717 259.572 11.0822 259.635 11.1522C259.697 11.2222 259.76 11.2922 259.823 11.3622C259.886 11.4322 259.875 11.5617 259.864 11.6912C259.853 11.8206 259.841 11.9501 259.893 12.1496C259.882 12.2791 259.871 12.4085 259.86 12.538C259.912 12.7375 259.827 12.9264 259.878 13.1259C259.856 13.3848 259.908 13.5843 259.886 13.8432C259.641 14.2806 259.693 14.4801 259.671 14.739Z" fill="white"/>
<path d="M273.064 23.0476C272.927 23.0454 272.72 23.1106 272.583 23.1083C272.446 23.106 272.238 23.1712 272.101 23.1689C271.964 23.1666 271.827 23.1643 271.689 23.162C271.552 23.1598 271.415 23.1575 271.415 23.1575C271.14 23.1529 270.936 23.0808 270.801 22.9413C270.666 22.8017 270.6 22.5947 270.673 22.39C270.675 22.2527 270.675 22.2527 270.677 22.1154C270.679 21.9782 270.749 21.9107 270.682 21.8409C270.828 21.2941 270.977 20.6101 271.123 20.0633C271.27 19.5166 271.416 18.9698 271.562 18.423C271.709 17.8763 271.855 17.3295 271.999 16.92C272.146 16.3732 272.36 15.8962 272.436 15.417C272.578 15.1447 272.652 14.8027 272.59 14.4584C272.596 14.0466 272.531 13.8396 272.329 13.6302C272.126 13.4209 271.854 13.2791 271.442 13.2722C271.305 13.2699 271.098 13.3352 270.823 13.3306C270.549 13.326 270.409 13.461 270.065 13.5239C270.063 13.6612 270.128 13.8682 270.056 14.0729C270.051 14.3475 269.979 14.5522 269.907 14.757C269.835 14.9617 269.693 15.234 269.554 15.3689C269.414 15.5039 269.205 15.7064 268.998 15.7716C268.791 15.8368 268.584 15.902 268.309 15.8974C268.104 15.8254 267.967 15.8231 267.83 15.8208C267.902 15.6161 267.974 15.4113 268.046 15.2065C268.118 15.0018 268.12 14.8645 268.193 14.6598C268.195 14.5225 268.13 14.3155 268.132 14.1782C268.134 14.0409 268.002 13.7641 267.867 13.6246L267.869 13.4873C268.213 13.4244 268.557 13.3615 268.972 13.2311C269.316 13.1682 269.73 13.0378 270.007 12.9051C270.351 12.8421 270.765 12.7117 271.109 12.6488C271.454 12.5859 271.798 12.523 272.14 12.5973C272.826 12.6088 273.373 12.7552 273.711 13.1041C274.048 13.4529 274.248 13.7995 274.239 14.3486C274.237 14.4858 274.234 14.6231 274.162 14.8278C274.16 14.9651 274.088 15.1699 274.086 15.3071C273.725 16.3309 273.433 17.4244 273.21 18.4505C272.917 19.544 272.694 20.57 272.333 21.5938C272.264 21.6613 272.331 21.7311 272.259 21.9358C272.257 22.0731 272.254 22.2103 272.389 22.3499C272.524 22.4894 272.592 22.5592 272.866 22.5638L273.064 23.0476Z" fill="white"/>
<path d="M281.193 11.3452L282.898 11.1365L283.14 13.2517C283.647 13.5545 284.165 13.994 284.41 14.4561C284.791 14.9069 285.036 15.369 285.292 15.9678C285.473 16.5039 285.655 17.04 285.774 17.6501C285.893 18.2602 286.075 18.7962 286.119 19.3435C286.227 19.8168 286.261 20.2273 286.294 20.6377C286.328 21.0482 286.499 21.4474 286.595 21.7839C286.692 22.1203 286.851 22.3828 287.01 22.6452C287.169 22.9076 287.391 23.096 287.602 23.1476L287.562 23.4952C287.499 23.5693 287.425 23.5065 287.225 23.5917C287.089 23.6029 286.815 23.6254 286.678 23.6366C286.479 23.7219 286.268 23.6703 286.131 23.6815C285.994 23.6927 285.857 23.7039 285.72 23.7152C285.584 23.7264 285.51 23.6636 285.361 23.538C285.287 23.4752 285.213 23.4124 285.202 23.2756C285.106 22.9391 284.935 22.5399 284.839 22.2034C284.742 21.867 284.646 21.5305 284.612 21.1201C284.579 20.7096 284.482 20.3732 284.46 20.0995C284.363 19.7631 284.404 19.4154 284.307 19.0789C284.273 18.6685 284.177 18.332 284.069 17.8588C284.036 17.4483 283.865 17.0491 283.695 16.6498C283.524 16.2506 283.354 15.8513 283.12 15.5261C282.887 15.2009 282.58 14.8128 282.21 14.4988C281.685 14.8174 281.171 15.2727 280.783 15.58C280.332 15.9614 280.092 16.3943 279.778 16.7644C279.538 17.1973 279.298 17.6302 279.132 18.1259C278.966 18.6217 278.863 19.0433 278.771 19.6019C279.245 19.4942 279.655 19.4605 279.929 19.4381C280.202 19.4156 280.55 19.456 280.824 19.4335C281.382 19.5255 281.804 19.6286 282.174 19.9426C282.544 20.2566 282.652 20.7299 282.623 21.2144C282.582 21.562 282.468 21.8469 282.416 22.0578C282.302 22.3426 282.102 22.4279 281.914 22.6499C281.714 22.7352 281.452 22.8944 281.252 22.9797C280.979 23.0021 280.705 23.0246 280.431 23.047C280.295 23.0582 280.22 22.9954 280.084 23.0067C279.947 23.0179 279.873 22.9551 279.662 22.9035C279.525 22.9147 279.388 22.926 279.189 23.0112C279.052 23.0224 278.778 23.0449 278.641 23.0561C278.505 23.0673 278.231 23.0898 278.094 23.101C277.957 23.1122 277.746 23.0606 277.61 23.0718C277.473 23.0831 277.399 23.0203 277.251 22.8947C277.177 22.8319 277.091 22.6322 277.08 22.4954C276.995 22.2958 276.984 22.159 276.961 21.8853C276.939 21.6117 276.928 21.4749 276.916 21.338C276.905 21.2012 276.883 20.9276 276.872 20.7907C276.86 20.6539 276.849 20.5171 276.912 20.4431C276.993 19.7477 277.073 19.0524 277.291 18.3458C277.508 17.6393 277.8 16.9955 278.166 16.4146C278.531 15.8336 279.034 15.2414 279.536 14.6493C280.112 14.1199 280.689 13.5905 281.35 13.2607L281.193 11.3452ZM279.848 20.1334C279.711 20.1446 279.574 20.1558 279.364 20.1043C279.227 20.1155 278.953 20.1379 278.753 20.2232C278.702 20.434 278.724 20.7077 278.747 20.9813C278.769 21.255 278.792 21.5286 278.814 21.8022C278.899 22.0019 278.985 22.2015 279.07 22.4011C279.218 22.5267 279.366 22.6523 279.64 22.6299C279.85 22.6814 280.05 22.5962 280.187 22.585C280.324 22.5738 280.449 22.4257 280.575 22.2777C280.7 22.1296 280.763 22.0556 280.815 21.8448C280.866 21.6339 280.929 21.5599 280.907 21.2862C280.947 20.9386 280.851 20.6021 280.629 20.4137C280.481 20.2881 280.258 20.0997 279.848 20.1334Z" fill="white"/>
<path d="M295.548 23.6139C295.412 23.6248 295.201 23.5728 295.064 23.5837C294.927 23.5946 294.716 23.5426 294.58 23.5535C294.443 23.5644 294.306 23.5753 294.169 23.5863C294.032 23.5972 293.958 23.5342 293.821 23.5451C293.611 23.4931 293.4 23.441 293.315 23.2412C293.23 23.0414 293.219 22.9046 293.271 22.6938C293.334 22.62 293.261 22.557 293.324 22.4831C293.386 22.4092 293.376 22.2724 293.439 22.1985C293.669 21.6293 293.899 21.06 294.192 20.4169C294.485 19.7738 294.715 19.2046 295.018 18.6983C295.322 18.1921 295.552 17.6228 295.782 17.0536C296.012 16.4844 296.253 16.052 296.494 15.6196C296.62 15.4719 296.609 15.335 296.735 15.1873C296.787 14.9765 296.85 14.9026 296.839 14.7658C296.943 14.3443 296.848 14.0077 296.752 13.671C296.593 13.4082 296.298 13.1564 295.876 13.0523C295.74 13.0632 295.529 13.0112 295.318 12.9591C295.044 12.981 294.771 13.0028 294.36 13.0355C294.582 13.2244 294.677 13.5611 294.773 13.8978C294.869 14.2344 294.828 14.582 294.713 14.8666C294.661 15.0773 294.546 15.3619 294.494 15.5727C294.379 15.8573 294.253 16.0051 294.064 16.2267C293.875 16.4484 293.675 16.5332 293.475 16.618C293.276 16.7028 293.002 16.7246 292.728 16.7464C292.591 16.7573 292.381 16.7053 292.17 16.6533C291.959 16.6012 291.822 16.6121 291.611 16.5601C291.401 16.508 291.201 16.5928 291.064 16.6037C290.927 16.6147 290.79 16.6256 290.654 16.6365C290.517 16.6474 290.38 16.6583 290.243 16.6692C290.106 16.6802 289.969 16.6911 289.895 16.6281C289.685 16.5761 289.474 16.524 289.252 16.3351C289.031 16.1462 288.957 16.0833 288.872 15.8835C288.787 15.6836 288.702 15.4838 288.681 15.2101C288.659 14.9365 288.648 14.7996 288.7 14.5889C288.856 13.9567 289.16 13.4504 289.549 13.144C290 12.7636 290.474 12.657 291.158 12.6024C291.295 12.5915 291.432 12.5806 291.569 12.5697C291.705 12.5587 291.916 12.6108 292.116 12.526C292.464 12.5671 292.874 12.5344 293.285 12.5016C293.695 12.4689 294.106 12.4361 294.516 12.4033C294.927 12.3706 295.337 12.3378 295.685 12.379C296.095 12.3462 296.443 12.3874 296.728 12.5024C297.497 12.6476 298.066 12.8776 298.383 13.4032C298.69 13.7919 298.796 14.2654 298.714 14.9605C298.673 15.3081 298.558 15.5927 298.369 15.8144C298.128 16.2468 297.961 16.7421 297.657 17.2483C297.427 17.8176 297.123 18.3238 296.83 18.9669C296.6 19.5362 296.307 20.1793 296.003 20.6855C295.773 21.2548 295.543 21.824 295.302 22.2564C295.239 22.3302 295.25 22.4671 295.187 22.541C295.198 22.6778 295.146 22.8886 295.22 22.9515C295.294 23.0145 295.379 23.2143 295.589 23.2663L295.548 23.6139ZM291.96 13.1582C291.538 13.0541 291.202 13.1498 290.876 13.3824C290.613 13.5411 290.435 13.8995 290.331 14.321C290.279 14.5317 290.29 14.6686 290.238 14.8793C290.186 15.09 290.271 15.2899 290.418 15.4158C290.503 15.6156 290.577 15.6786 290.725 15.8045C290.873 15.9304 291.02 16.0564 291.231 16.1084C291.442 16.1605 291.716 16.1386 291.852 16.1277C292.052 16.0429 292.189 16.032 292.315 15.8842C292.441 15.7364 292.567 15.5887 292.693 15.4409C292.819 15.2932 292.871 15.0824 292.923 14.8717C292.975 14.661 292.964 14.5241 292.953 14.3873C292.942 14.2504 292.857 14.0506 292.846 13.9138C292.835 13.7769 292.688 13.651 292.54 13.525C292.381 13.2623 292.171 13.2102 291.96 13.1582Z" fill="white"/>
<path d="M303.588 11.9741L305.274 11.7748L305.491 13.8949C305.894 14.1826 306.257 14.5587 306.492 14.9836C306.726 15.4085 306.921 15.9219 307.027 16.3955C307.718 16.2804 308.191 16.1741 308.625 16.1564C308.97 16.0988 309.316 16.0412 309.572 15.9438C309.829 15.8464 310.046 15.8376 310.174 15.7889C310.303 15.7402 310.431 15.6915 310.559 15.6428C310.816 15.5454 311.161 15.4878 311.418 15.3904C311.675 15.293 311.98 15.3239 312.285 15.3549C312.502 15.346 312.768 15.4655 312.945 15.5452C313.122 15.6248 313.259 15.793 313.396 15.9612C313.534 16.1294 313.671 16.2975 313.68 16.5144C313.777 16.7711 313.786 16.988 313.755 17.2934C313.764 17.5103 313.684 17.6874 313.605 17.8644C313.525 18.0415 313.445 18.2185 313.366 18.3956C313.286 18.5726 313.118 18.7099 312.95 18.8471C312.782 18.9843 312.653 19.033 312.436 19.0419C312.308 19.0906 312.219 19.0507 312.003 19.0596C311.786 19.0685 311.657 19.1172 311.529 19.1659C311.272 19.2633 311.055 19.2722 310.799 19.3696C310.542 19.467 310.325 19.4758 310.148 19.3962C309.843 19.3652 309.666 19.2856 309.488 19.2059C309.351 19.0377 309.214 18.8696 309.077 18.7014C308.94 18.5332 308.931 18.3163 308.833 18.0596C308.824 17.8427 308.816 17.6258 308.807 17.409C308.758 17.2806 308.838 17.1035 308.917 16.9265C308.997 16.7494 308.948 16.6211 309.028 16.444L307.094 16.9576C307.2 17.4312 307.266 17.9933 307.244 18.5156C307.222 19.0379 307.289 19.6 307.306 20.0338C307.324 20.4676 307.342 20.9013 307.36 21.3351C307.377 21.7689 307.435 22.1141 307.493 22.4593C307.55 22.8046 307.648 23.0613 307.785 23.2295C307.882 23.4862 308.059 23.5658 308.325 23.6853L308.294 23.9907C308.294 23.9907 308.077 23.9996 307.949 24.0483C307.732 24.0571 307.603 24.1059 307.386 24.1147C307.17 24.1236 306.953 24.1325 306.824 24.1812C306.607 24.19 306.519 24.1502 306.391 24.1989C306.262 24.2476 306.085 24.168 306.125 24.0794C306.037 24.0396 305.988 23.9112 306.028 23.8227C305.93 23.566 305.873 23.2208 305.815 22.8755C305.758 22.5303 305.7 22.1851 305.731 21.8797C305.673 21.5344 305.704 21.229 305.687 20.7953C305.717 20.4898 305.7 20.0561 305.642 19.7108C305.624 19.2771 305.607 18.8433 305.549 18.4981C305.531 18.0643 305.474 17.7191 305.456 17.2853C305.398 16.9401 305.292 16.4665 305.106 16.17C304.96 15.7849 304.774 15.4884 304.588 15.1918C304.084 15.6035 303.579 16.0152 303.203 16.3782C302.787 16.8297 302.499 17.2325 302.26 17.7637C302.021 18.2948 301.822 18.7374 301.672 19.3084C301.561 19.7909 301.499 20.4017 301.437 21.0125C301.446 21.2294 301.455 21.4463 301.464 21.6632C301.473 21.8801 301.482 22.0969 301.579 22.3536C301.588 22.5705 301.685 22.8272 301.823 22.9954C301.96 23.1636 302.097 23.3318 302.314 23.3229L302.283 23.6283C302.283 23.6283 302.155 23.677 301.938 23.6859C301.721 23.6948 301.593 23.7435 301.376 23.7523C301.159 23.7612 300.942 23.7701 300.814 23.8188C300.597 23.8277 300.468 23.8763 300.291 23.7967C300.203 23.7569 300.114 23.717 299.937 23.6374C299.889 23.509 299.84 23.3807 299.703 23.2125C299.565 23.0443 299.645 22.8673 299.636 22.6504C299.627 22.4335 299.618 22.2166 299.61 21.9997C299.601 21.7828 299.592 21.566 299.632 21.4774C299.671 21.3889 299.663 21.172 299.702 21.0835C299.804 20.3842 299.906 19.6848 300.096 19.0253C300.286 18.3658 300.605 17.6576 300.972 17.0777C301.34 16.4979 301.707 15.918 302.251 15.4178C302.707 14.8778 303.34 14.4174 303.933 14.0455L303.588 11.9741ZM311.493 16.1694C311.276 16.1783 311.148 16.227 310.931 16.2358C310.803 16.2845 310.674 16.3332 310.506 16.4705C310.338 16.6077 310.298 16.6962 310.258 16.7847C310.219 16.8733 310.139 17.0503 310.188 17.1787C310.196 17.3955 310.157 17.4841 310.166 17.7009C310.174 17.9178 310.223 18.0462 310.36 18.2144C310.409 18.3427 310.546 18.5109 310.683 18.6791C310.821 18.8473 310.949 18.7986 311.126 18.8782C311.343 18.8694 311.471 18.8207 311.6 18.772C311.728 18.7233 311.856 18.6745 311.936 18.4975C311.976 18.409 312.144 18.2717 312.135 18.0549C312.215 17.8778 312.255 17.7893 312.246 17.5724C312.237 17.3555 312.277 17.267 312.268 17.0501C312.219 16.9218 312.21 16.7049 312.162 16.5765C312.113 16.4482 311.976 16.28 311.887 16.2402C311.799 16.2003 311.71 16.1605 311.493 16.1694Z" fill="white"/>
<path d="M318.268 10.7686C318.363 10.785 318.476 10.7111 318.667 10.7439C318.763 10.7604 318.971 10.7029 319.067 10.7193C319.258 10.7522 319.466 10.6947 319.753 10.744C319.944 10.7769 320.23 10.8262 320.404 10.9494C320.577 11.0727 320.768 11.1056 320.829 11.3027C321.003 11.426 321.064 11.6232 321.011 11.8943C320.977 12.075 320.942 12.2558 320.829 12.3297C320.699 12.494 320.586 12.5679 320.473 12.6419C320.681 12.5844 320.968 12.6337 321.176 12.5762C321.48 12.5351 321.671 12.568 321.88 12.5105C322.088 12.453 322.375 12.5023 322.47 12.5188C322.661 12.5516 322.774 12.4777 322.869 12.4942C323.06 12.527 323.251 12.5599 323.33 12.6667C323.408 12.7735 323.486 12.8803 323.434 13.1514C323.416 13.2418 323.416 13.2418 323.399 13.3322C323.382 13.4225 323.364 13.5129 323.364 13.5129C323.277 13.9648 323.191 14.4166 323.104 14.8685C323.017 15.3203 322.93 15.7722 322.843 16.224L327.045 15.9203C327.028 16.0107 326.993 16.1914 326.976 16.2818C326.959 16.3722 326.924 16.5529 326.906 16.6433C326.854 16.9144 326.898 17.2019 327.037 17.5059C327.176 17.8099 327.236 18.0071 327.393 18.2207L327.358 18.4014C327.037 18.5329 326.733 18.5739 326.542 18.541C326.351 18.5082 326.064 18.4588 325.873 18.426C325.699 18.3027 325.526 18.1795 325.352 18.0562C325.179 17.933 325.022 17.7194 324.979 17.4318C324.918 17.2347 324.875 16.9471 324.849 16.5692L322.643 16.7498C322.452 17.7438 322.357 18.7543 322.183 19.658C322.009 20.5617 321.914 21.5722 321.723 22.5663L321.705 22.6567L321.688 22.747L321.653 22.9278C321.618 23.1085 321.696 23.2153 321.775 23.3221C321.853 23.4289 321.931 23.5357 322.235 23.4947L322.261 23.8726C322.052 23.9301 321.957 23.9137 321.748 23.9712C321.54 24.0286 321.445 24.0122 321.236 24.0697C321.123 24.1436 320.932 24.1107 320.837 24.0943C320.741 24.0779 320.628 24.1518 320.533 24.1354C320.246 24.0861 320.055 24.0532 319.977 23.9464C319.899 23.8396 319.838 23.6424 319.873 23.4616C319.89 23.3713 319.89 23.3713 319.908 23.2809C319.908 23.2809 319.925 23.1905 319.943 23.1002C320.056 21.9993 320.247 21.0052 320.438 20.0112C320.629 19.0171 320.742 17.9162 320.933 16.9222L318.632 17.0863C318.658 17.4642 318.589 17.8257 318.441 18.0804C318.389 18.3515 318.241 18.6062 318.015 18.754C317.79 18.9019 317.564 19.0498 317.243 19.1812C316.921 19.3126 316.522 19.3372 316.044 19.255L316.079 19.0743C316.305 18.9264 316.453 18.6718 316.505 18.4007C316.557 18.1295 316.609 17.8584 316.661 17.5873C316.678 17.4969 316.618 17.2998 316.635 17.2094C316.652 17.119 316.592 16.9219 316.514 16.815L316.453 16.6179L321.055 16.2896C321.124 15.9281 321.193 15.5666 321.263 15.2052C321.332 14.8437 321.402 14.4822 321.489 14.0304C321.506 13.94 321.524 13.8496 321.558 13.6689C321.576 13.5785 321.498 13.4717 321.515 13.3813C321.437 13.2745 321.359 13.1677 321.263 13.1513C321.185 13.0445 320.994 13.0116 320.707 12.9623C320.421 12.913 320.23 12.8801 319.848 12.8143C319.64 12.8718 319.318 13.0033 319.032 12.9539C318.728 12.995 318.441 12.9457 318.233 13.0032L318.155 12.8964C318.511 12.5842 318.676 12.2392 318.667 11.7709C318.702 11.5901 318.641 11.393 318.485 11.1794C318.424 10.9822 318.25 10.8589 317.981 10.7193L318.268 10.7686Z" fill="white"/>
<path d="M73.2693 37.1772V40.3852H77.3173V42.0412H73.2693V45.3132H78.4053V47.0332H71.1093V35.4652H78.4053V37.1772H73.2693ZM88.3924 37.2332H84.9044V47.0332H82.7524V37.2332H79.2644V35.4652H88.3924V37.2332ZM99.6582 35.4652V47.0332H97.4982V41.9772H92.0662V47.0332H89.9062V35.4652H92.0662V40.4412H97.4982V35.4652H99.6582ZM104.394 47.0332H102.234V35.4652H104.394V47.0332ZM118.016 41.2492C118.016 42.0972 117.875 42.8839 117.592 43.6092C117.315 44.3292 116.92 44.9532 116.408 45.4812C115.896 46.0092 115.28 46.4225 114.56 46.7212C113.84 47.0145 113.04 47.1612 112.16 47.1612C111.286 47.1612 110.488 47.0145 109.768 46.7212C109.048 46.4225 108.43 46.0092 107.912 45.4812C107.4 44.9532 107.003 44.3292 106.72 43.6092C106.438 42.8839 106.296 42.0972 106.296 41.2492C106.296 40.4012 106.438 39.6172 106.72 38.8972C107.003 38.1719 107.4 37.5452 107.912 37.0172C108.43 36.4892 109.048 36.0785 109.768 35.7852C110.488 35.4865 111.286 35.3372 112.16 35.3372C112.747 35.3372 113.299 35.4065 113.816 35.5452C114.334 35.6785 114.808 35.8705 115.24 36.1212C115.672 36.3665 116.059 36.6679 116.4 37.0252C116.747 37.3772 117.04 37.7719 117.28 38.2092C117.52 38.6465 117.702 39.1212 117.824 39.6332C117.952 40.1452 118.016 40.6839 118.016 41.2492ZM115.816 41.2492C115.816 40.6145 115.731 40.0465 115.56 39.5452C115.39 39.0385 115.147 38.6092 114.832 38.2572C114.518 37.9052 114.134 37.6359 113.68 37.4492C113.232 37.2625 112.726 37.1692 112.16 37.1692C111.595 37.1692 111.086 37.2625 110.632 37.4492C110.184 37.6359 109.8 37.9052 109.48 38.2572C109.166 38.6092 108.923 39.0385 108.752 39.5452C108.582 40.0465 108.496 40.6145 108.496 41.2492C108.496 41.8839 108.582 42.4545 108.752 42.9612C108.923 43.4625 109.166 43.8892 109.48 44.2412C109.8 44.5879 110.184 44.8545 110.632 45.0412C111.086 45.2279 111.595 45.3212 112.16 45.3212C112.726 45.3212 113.232 45.2279 113.68 45.0412C114.134 44.8545 114.518 44.5879 114.832 44.2412C115.147 43.8892 115.39 43.4625 115.56 42.9612C115.731 42.4545 115.816 41.8839 115.816 41.2492ZM123.666 41.2812C124.061 41.2812 124.405 41.2332 124.698 41.1372C124.991 41.0359 125.234 40.8945 125.426 40.7132C125.623 40.5265 125.77 40.3025 125.866 40.0412C125.962 39.7745 126.01 39.4785 126.01 39.1532C126.01 38.8439 125.962 38.5639 125.866 38.3132C125.77 38.0625 125.626 37.8492 125.434 37.6732C125.242 37.4972 124.999 37.3639 124.706 37.2732C124.413 37.1772 124.066 37.1292 123.666 37.1292H122.058V41.2812H123.666ZM123.666 35.4652C124.439 35.4652 125.109 35.5559 125.674 35.7372C126.239 35.9185 126.706 36.1719 127.074 36.4972C127.442 36.8225 127.714 37.2119 127.89 37.6652C128.071 38.1185 128.162 38.6145 128.162 39.1532C128.162 39.7132 128.069 40.2279 127.882 40.6972C127.695 41.1612 127.415 41.5612 127.042 41.8972C126.669 42.2332 126.199 42.4945 125.634 42.6812C125.074 42.8679 124.418 42.9612 123.666 42.9612H122.058V47.0332H119.906V35.4652H123.666ZM131.972 47.0332H129.812V35.4652H131.972V47.0332ZM140.674 42.6652L139.266 38.8172C139.197 38.6465 139.125 38.4439 139.05 38.2092C138.976 37.9745 138.901 37.7212 138.826 37.4492C138.757 37.7212 138.685 37.9772 138.61 38.2172C138.536 38.4519 138.464 38.6572 138.394 38.8332L136.994 42.6652H140.674ZM144.474 47.0332H142.81C142.624 47.0332 142.472 46.9879 142.354 46.8972C142.237 46.8012 142.149 46.6839 142.09 46.5452L141.226 44.1852H136.434L135.57 46.5452C135.528 46.6679 135.445 46.7799 135.322 46.8812C135.2 46.9825 135.048 47.0332 134.866 47.0332H133.186L137.738 35.4652H139.93L144.474 47.0332ZM155.424 35.4652V47.0332H154.32C154.149 47.0332 154.005 47.0065 153.888 46.9532C153.776 46.8945 153.666 46.7985 153.56 46.6652L147.52 38.9532C147.552 39.3052 147.568 39.6305 147.568 39.9292V47.0332H145.672V35.4652H146.8C146.89 35.4652 146.968 35.4705 147.032 35.4812C147.101 35.4865 147.16 35.5025 147.208 35.5292C147.261 35.5505 147.312 35.5852 147.36 35.6332C147.408 35.6759 147.461 35.7345 147.52 35.8092L153.584 43.5532C153.568 43.3665 153.554 43.1825 153.544 43.0012C153.533 42.8199 153.528 42.6519 153.528 42.4972V35.4652H155.424ZM168.051 37.5692C167.987 37.6812 167.917 37.7639 167.843 37.8172C167.773 37.8652 167.685 37.8892 167.579 37.8892C167.467 37.8892 167.344 37.8492 167.211 37.7692C167.083 37.6839 166.928 37.5905 166.747 37.4892C166.565 37.3879 166.352 37.2972 166.107 37.2172C165.867 37.1319 165.581 37.0892 165.251 37.0892C164.952 37.0892 164.691 37.1265 164.467 37.2012C164.243 37.2705 164.053 37.3692 163.899 37.4972C163.749 37.6252 163.637 37.7799 163.563 37.9612C163.488 38.1372 163.451 38.3319 163.451 38.5452C163.451 38.8172 163.525 39.0439 163.675 39.2252C163.829 39.4065 164.032 39.5612 164.283 39.6892C164.533 39.8172 164.819 39.9319 165.139 40.0332C165.459 40.1345 165.787 40.2439 166.123 40.3612C166.459 40.4732 166.787 40.6065 167.107 40.7612C167.427 40.9105 167.712 41.1025 167.963 41.3372C168.213 41.5665 168.413 41.8492 168.563 42.1852C168.717 42.5212 168.795 42.9292 168.795 43.4092C168.795 43.9319 168.704 44.4225 168.523 44.8812C168.347 45.3345 168.085 45.7319 167.739 46.0732C167.397 46.4092 166.979 46.6759 166.483 46.8732C165.987 47.0652 165.419 47.1612 164.779 47.1612C164.411 47.1612 164.048 47.1239 163.691 47.0492C163.333 46.9799 162.989 46.8785 162.659 46.7452C162.333 46.6119 162.027 46.4519 161.739 46.2652C161.451 46.0785 161.195 45.8705 160.971 45.6412L161.603 44.6092C161.656 44.5345 161.725 44.4732 161.811 44.4252C161.896 44.3719 161.987 44.3452 162.083 44.3452C162.216 44.3452 162.36 44.4012 162.515 44.5132C162.669 44.6199 162.853 44.7399 163.067 44.8732C163.28 45.0065 163.528 45.1292 163.811 45.2412C164.099 45.3479 164.443 45.4012 164.843 45.4012C165.456 45.4012 165.931 45.2572 166.267 44.9692C166.603 44.6759 166.771 44.2572 166.771 43.7132C166.771 43.4092 166.693 43.1612 166.539 42.9692C166.389 42.7772 166.189 42.6172 165.939 42.4892C165.688 42.3559 165.403 42.2439 165.083 42.1532C164.763 42.0625 164.437 41.9639 164.107 41.8572C163.776 41.7505 163.451 41.6225 163.131 41.4732C162.811 41.3239 162.525 41.1292 162.275 40.8892C162.024 40.6492 161.821 40.3505 161.667 39.9932C161.517 39.6305 161.443 39.1852 161.443 38.6572C161.443 38.2359 161.525 37.8252 161.691 37.4252C161.861 37.0252 162.107 36.6705 162.427 36.3612C162.747 36.0519 163.141 35.8039 163.611 35.6172C164.08 35.4305 164.619 35.3372 165.227 35.3372C165.909 35.3372 166.539 35.4439 167.115 35.6572C167.691 35.8705 168.181 36.1692 168.587 36.5532L168.051 37.5692ZM178.752 37.2332H175.264V47.0332H173.112V37.2332H169.624V35.4652H178.752V37.2332ZM185.253 42.6652L183.845 38.8172C183.775 38.6465 183.703 38.4439 183.629 38.2092C183.554 37.9745 183.479 37.7212 183.405 37.4492C183.335 37.7212 183.263 37.9772 183.189 38.2172C183.114 38.4519 183.042 38.6572 182.973 38.8332L181.573 42.6652H185.253ZM189.053 47.0332H187.389C187.202 47.0332 187.05 46.9879 186.933 46.8972C186.815 46.8012 186.727 46.6839 186.669 46.5452L185.805 44.1852H181.013L180.149 46.5452C180.106 46.6679 180.023 46.7799 179.901 46.8812C179.778 46.9825 179.626 47.0332 179.445 47.0332H177.765L182.317 35.4652H184.509L189.053 47.0332ZM197.205 37.2332H193.717V47.0332H191.565V37.2332H188.077V35.4652H197.205V37.2332ZM200.879 47.0332H198.719V35.4652H200.879V47.0332ZM209.629 37.5692C209.565 37.6812 209.495 37.7639 209.421 37.8172C209.351 37.8652 209.263 37.8892 209.157 37.8892C209.045 37.8892 208.922 37.8492 208.789 37.7692C208.661 37.6839 208.506 37.5905 208.325 37.4892C208.143 37.3879 207.93 37.2972 207.685 37.2172C207.445 37.1319 207.159 37.0892 206.829 37.0892C206.53 37.0892 206.269 37.1265 206.045 37.2012C205.821 37.2705 205.631 37.3692 205.477 37.4972C205.327 37.6252 205.215 37.7799 205.141 37.9612C205.066 38.1372 205.029 38.3319 205.029 38.5452C205.029 38.8172 205.103 39.0439 205.253 39.2252C205.407 39.4065 205.61 39.5612 205.861 39.6892C206.111 39.8172 206.397 39.9319 206.717 40.0332C207.037 40.1345 207.365 40.2439 207.701 40.3612C208.037 40.4732 208.365 40.6065 208.685 40.7612C209.005 40.9105 209.29 41.1025 209.541 41.3372C209.791 41.5665 209.991 41.8492 210.141 42.1852C210.295 42.5212 210.373 42.9292 210.373 43.4092C210.373 43.9319 210.282 44.4225 210.101 44.8812C209.925 45.3345 209.663 45.7319 209.317 46.0732C208.975 46.4092 208.557 46.6759 208.061 46.8732C207.565 47.0652 206.997 47.1612 206.357 47.1612C205.989 47.1612 205.626 47.1239 205.269 47.0492C204.911 46.9799 204.567 46.8785 204.237 46.7452C203.911 46.6119 203.605 46.4519 203.317 46.2652C203.029 46.0785 202.773 45.8705 202.549 45.6412L203.181 44.6092C203.234 44.5345 203.303 44.4732 203.389 44.4252C203.474 44.3719 203.565 44.3452 203.661 44.3452C203.794 44.3452 203.938 44.4012 204.093 44.5132C204.247 44.6199 204.431 44.7399 204.645 44.8732C204.858 45.0065 205.106 45.1292 205.389 45.2412C205.677 45.3479 206.021 45.4012 206.421 45.4012C207.034 45.4012 207.509 45.2572 207.845 44.9692C208.181 44.6759 208.349 44.2572 208.349 43.7132C208.349 43.4092 208.271 43.1612 208.117 42.9692C207.967 42.7772 207.767 42.6172 207.517 42.4892C207.266 42.3559 206.981 42.2439 206.661 42.1532C206.341 42.0625 206.015 41.9639 205.685 41.8572C205.354 41.7505 205.029 41.6225 204.709 41.4732C204.389 41.3239 204.103 41.1292 203.853 40.8892C203.602 40.6492 203.399 40.3505 203.245 39.9932C203.095 39.6305 203.021 39.1852 203.021 38.6572C203.021 38.2359 203.103 37.8252 203.269 37.4252C203.439 37.0252 203.685 36.6705 204.005 36.3612C204.325 36.0519 204.719 35.8039 205.189 35.6172C205.658 35.4305 206.197 35.3372 206.805 35.3372C207.487 35.3372 208.117 35.4439 208.693 35.6572C209.269 35.8705 209.759 36.1692 210.165 36.5532L209.629 37.5692ZM220.33 37.2332H216.842V47.0332H214.69V37.2332H211.202V35.4652H220.33V37.2332ZM224.004 47.0332H221.844V35.4652H224.004V47.0332ZM234.538 44.3052C234.655 44.3052 234.759 44.3505 234.85 44.4412L235.698 45.3612C235.228 45.9425 234.65 46.3879 233.962 46.6972C233.279 47.0065 232.458 47.1612 231.498 47.1612C230.639 47.1612 229.866 47.0145 229.178 46.7212C228.495 46.4279 227.911 46.0199 227.426 45.4972C226.94 44.9745 226.567 44.3505 226.306 43.6252C226.05 42.8999 225.922 42.1079 225.922 41.2492C225.922 40.3799 226.06 39.5852 226.338 38.8652C226.615 38.1399 227.004 37.5159 227.506 36.9932C228.012 36.4705 228.615 36.0652 229.314 35.7772C230.012 35.4839 230.786 35.3372 231.634 35.3372C232.476 35.3372 233.223 35.4759 233.874 35.7532C234.53 36.0305 235.087 36.3932 235.546 36.8412L234.826 37.8412C234.783 37.9052 234.727 37.9612 234.658 38.0092C234.594 38.0572 234.503 38.0812 234.386 38.0812C234.306 38.0812 234.223 38.0599 234.138 38.0172C234.052 37.9692 233.959 37.9132 233.858 37.8492C233.756 37.7799 233.639 37.7052 233.506 37.6252C233.372 37.5452 233.218 37.4732 233.042 37.4092C232.866 37.3399 232.66 37.2839 232.426 37.2412C232.196 37.1932 231.93 37.1692 231.626 37.1692C231.108 37.1692 230.634 37.2625 230.202 37.4492C229.775 37.6305 229.407 37.8972 229.098 38.2492C228.788 38.5959 228.548 39.0225 228.378 39.5292C228.207 40.0305 228.122 40.6039 228.122 41.2492C228.122 41.8999 228.212 42.4785 228.394 42.9852C228.58 43.4919 228.831 43.9185 229.146 44.2652C229.46 44.6119 229.831 44.8785 230.258 45.0652C230.684 45.2465 231.143 45.3372 231.634 45.3372C231.927 45.3372 232.191 45.3212 232.426 45.2892C232.666 45.2572 232.884 45.2065 233.082 45.1372C233.284 45.0679 233.474 44.9799 233.65 44.8732C233.831 44.7612 234.01 44.6252 234.186 44.4652C234.239 44.4172 234.295 44.3799 234.354 44.3532C234.412 44.3212 234.474 44.3052 234.538 44.3052ZM243.284 42.6652L241.876 38.8172C241.806 38.6465 241.734 38.4439 241.66 38.2092C241.585 37.9745 241.51 37.7212 241.436 37.4492C241.366 37.7212 241.294 37.9772 241.22 38.2172C241.145 38.4519 241.073 38.6572 241.004 38.8332L239.604 42.6652H243.284ZM247.084 47.0332H245.42C245.233 47.0332 245.081 46.9879 244.964 46.8972C244.846 46.8012 244.758 46.6839 244.7 46.5452L243.836 44.1852H239.044L238.18 46.5452C238.137 46.6679 238.054 46.7799 237.932 46.8812C237.809 46.9825 237.657 47.0332 237.476 47.0332H235.796L240.348 35.4652H242.54L247.084 47.0332ZM255.057 45.2572V47.0332H248.281V35.4652H250.433V45.2572H255.057ZM266.16 37.5692C266.096 37.6812 266.027 37.7639 265.952 37.8172C265.883 37.8652 265.795 37.8892 265.688 37.8892C265.576 37.8892 265.453 37.8492 265.32 37.7692C265.192 37.6839 265.037 37.5905 264.856 37.4892C264.675 37.3879 264.461 37.2972 264.216 37.2172C263.976 37.1319 263.691 37.0892 263.36 37.0892C263.061 37.0892 262.8 37.1265 262.576 37.2012C262.352 37.2705 262.163 37.3692 262.008 37.4972C261.859 37.6252 261.747 37.7799 261.672 37.9612C261.597 38.1372 261.56 38.3319 261.56 38.5452C261.56 38.8172 261.635 39.0439 261.784 39.2252C261.939 39.4065 262.141 39.5612 262.392 39.6892C262.643 39.8172 262.928 39.9319 263.248 40.0332C263.568 40.1345 263.896 40.2439 264.232 40.3612C264.568 40.4732 264.896 40.6065 265.216 40.7612C265.536 40.9105 265.821 41.1025 266.072 41.3372C266.323 41.5665 266.523 41.8492 266.672 42.1852C266.827 42.5212 266.904 42.9292 266.904 43.4092C266.904 43.9319 266.813 44.4225 266.632 44.8812C266.456 45.3345 266.195 45.7319 265.848 46.0732C265.507 46.4092 265.088 46.6759 264.592 46.8732C264.096 47.0652 263.528 47.1612 262.888 47.1612C262.52 47.1612 262.157 47.1239 261.8 47.0492C261.443 46.9799 261.099 46.8785 260.768 46.7452C260.443 46.6119 260.136 46.4519 259.848 46.2652C259.56 46.0785 259.304 45.8705 259.08 45.6412L259.712 44.6092C259.765 44.5345 259.835 44.4732 259.92 44.4252C260.005 44.3719 260.096 44.3452 260.192 44.3452C260.325 44.3452 260.469 44.4012 260.624 44.5132C260.779 44.6199 260.963 44.7399 261.176 44.8732C261.389 45.0065 261.637 45.1292 261.92 45.2412C262.208 45.3479 262.552 45.4012 262.952 45.4012C263.565 45.4012 264.04 45.2572 264.376 44.9692C264.712 44.6759 264.88 44.2572 264.88 43.7132C264.88 43.4092 264.803 43.1612 264.648 42.9692C264.499 42.7772 264.299 42.6172 264.048 42.4892C263.797 42.3559 263.512 42.2439 263.192 42.1532C262.872 42.0625 262.547 41.9639 262.216 41.8572C261.885 41.7505 261.56 41.6225 261.24 41.4732C260.92 41.3239 260.635 41.1292 260.384 40.8892C260.133 40.6492 259.931 40.3505 259.776 39.9932C259.627 39.6305 259.552 39.1852 259.552 38.6572C259.552 38.2359 259.635 37.8252 259.8 37.4252C259.971 37.0252 260.216 36.6705 260.536 36.3612C260.856 36.0519 261.251 35.8039 261.72 35.6172C262.189 35.4305 262.728 35.3372 263.336 35.3372C264.019 35.3372 264.648 35.4439 265.224 35.6572C265.8 35.8705 266.291 36.1692 266.696 36.5532L266.16 37.5692ZM270.941 37.1772V40.3852H274.989V42.0412H270.941V45.3132H276.077V47.0332H268.781V35.4652H276.077V37.1772H270.941ZM281.48 40.9692C281.886 40.9692 282.238 40.9185 282.536 40.8172C282.84 40.7159 283.088 40.5772 283.28 40.4012C283.478 40.2199 283.624 40.0065 283.72 39.7612C283.816 39.5159 283.864 39.2465 283.864 38.9532C283.864 38.3665 283.67 37.9159 283.28 37.6012C282.896 37.2865 282.307 37.1292 281.512 37.1292H280.136V40.9692H281.48ZM287.016 47.0332H285.072C284.704 47.0332 284.438 46.8892 284.272 46.6012L281.84 42.8972C281.75 42.7585 281.648 42.6599 281.536 42.6012C281.43 42.5425 281.27 42.5132 281.056 42.5132H280.136V47.0332H277.984V35.4652H281.512C282.296 35.4652 282.968 35.5479 283.528 35.7132C284.094 35.8732 284.555 36.0999 284.912 36.3932C285.275 36.6865 285.542 37.0385 285.712 37.4492C285.883 37.8545 285.968 38.3025 285.968 38.7932C285.968 39.1825 285.91 39.5505 285.792 39.8972C285.68 40.2439 285.515 40.5585 285.296 40.8412C285.083 41.1239 284.816 41.3719 284.496 41.5852C284.182 41.7985 283.822 41.9665 283.416 42.0892C283.555 42.1692 283.683 42.2652 283.8 42.3772C283.918 42.4839 284.024 42.6119 284.12 42.7612L287.016 47.0332ZM297.818 35.4652L293.146 47.0332H291.202L286.53 35.4652H288.258C288.445 35.4652 288.597 35.5105 288.714 35.6012C288.831 35.6919 288.919 35.8092 288.978 35.9532L291.706 43.0092C291.797 43.2385 291.882 43.4919 291.962 43.7692C292.047 44.0412 292.127 44.3265 292.202 44.6252C292.266 44.3265 292.335 44.0412 292.41 43.7692C292.485 43.4919 292.567 43.2385 292.658 43.0092L295.37 35.9532C295.413 35.8305 295.495 35.7185 295.618 35.6172C295.746 35.5159 295.901 35.4652 296.082 35.4652H297.818ZM301.176 47.0332H299.016V35.4652H301.176V47.0332ZM311.71 44.3052C311.827 44.3052 311.931 44.3505 312.022 44.4412L312.87 45.3612C312.4 45.9425 311.822 46.3879 311.134 46.6972C310.451 47.0065 309.63 47.1612 308.67 47.1612C307.811 47.1612 307.038 47.0145 306.35 46.7212C305.667 46.4279 305.083 46.0199 304.598 45.4972C304.112 44.9745 303.739 44.3505 303.478 43.6252C303.222 42.8999 303.094 42.1079 303.094 41.2492C303.094 40.3799 303.232 39.5852 303.51 38.8652C303.787 38.1399 304.176 37.5159 304.678 36.9932C305.184 36.4705 305.787 36.0652 306.486 35.7772C307.184 35.4839 307.958 35.3372 308.806 35.3372C309.648 35.3372 310.395 35.4759 311.046 35.7532C311.702 36.0305 312.259 36.3932 312.718 36.8412L311.998 37.8412C311.955 37.9052 311.899 37.9612 311.83 38.0092C311.766 38.0572 311.675 38.0812 311.558 38.0812C311.478 38.0812 311.395 38.0599 311.31 38.0172C311.224 37.9692 311.131 37.9132 311.03 37.8492C310.928 37.7799 310.811 37.7052 310.678 37.6252C310.544 37.5452 310.39 37.4732 310.214 37.4092C310.038 37.3399 309.832 37.2839 309.598 37.2412C309.368 37.1932 309.102 37.1692 308.798 37.1692C308.28 37.1692 307.806 37.2625 307.374 37.4492C306.947 37.6305 306.579 37.8972 306.27 38.2492C305.96 38.5959 305.72 39.0225 305.55 39.5292C305.379 40.0305 305.294 40.6039 305.294 41.2492C305.294 41.8999 305.384 42.4785 305.566 42.9852C305.752 43.4919 306.003 43.9185 306.318 44.2652C306.632 44.6119 307.003 44.8785 307.43 45.0652C307.856 45.2465 308.315 45.3372 308.806 45.3372C309.099 45.3372 309.363 45.3212 309.598 45.2892C309.838 45.2572 310.056 45.2065 310.254 45.1372C310.456 45.0679 310.646 44.9799 310.822 44.8732C311.003 44.7612 311.182 44.6252 311.358 44.4652C311.411 44.4172 311.467 44.3799 311.526 44.3532C311.584 44.3212 311.646 44.3052 311.71 44.3052ZM316.504 37.1772V40.3852H320.552V42.0412H316.504V45.3132H321.64V47.0332H314.344V35.4652H321.64V37.1772H316.504Z" fill="white"/>
</svg>
