<svg width="62" height="62" viewBox="0 0 62 62" fill="none" xmlns="http://www.w3.org/2000/svg">
<path d="M15.7235 48.6756L27.7505 22.916H23.9456L11.6562 48.8942C12.3997 49.8564 14.8051 47.8446 15.7235 48.6756Z" fill="white"/>
<path d="M22.2852 22.4785H18.4803L8.11523 44.302C8.81498 45.4391 9.51473 46.7511 10.3457 47.8007L22.2852 22.4785Z" fill="white"/>
<path d="M34.005 38.1347L22.2404 22.5215H18.4355L30.2001 38.1347H34.005Z" fill="white"/>
<path d="M34.093 38.2229H30.1569L18.3486 22.4785H22.2847L34.093 38.2229ZM30.2006 38.0917H33.8743L22.1973 22.566H18.5236L30.2006 38.0917Z" fill="white"/>
<path d="M18.346 54.9732L13.7539 56.1978L29.6295 22.6973H33.4344L18.346 54.9732Z" fill="white"/>
<path d="M13.623 56.3298L29.6298 22.6543H33.5659L33.5222 22.7418L18.3901 55.0177L13.623 56.3298ZM29.6736 22.7418L13.8417 56.1111L18.3026 54.8865L33.3472 22.7418H29.6736Z" fill="white"/>
<path d="M39.4278 38.3983L27.707 22.7852H23.8584L35.6229 38.3983H39.4278Z" fill="white"/>
<path d="M39.5608 38.4854H35.6247V38.4416L23.8164 22.6973H27.7525V22.741L39.5608 38.4854ZM35.6684 38.3542H39.3421L27.665 22.8285H23.9913L35.6684 38.3542Z" fill="white"/>
<path d="M43.3658 18.3686L49.1825 5.9043H45.3776L30.333 38.1365H34.1379L42.4912 20.118L43.3658 18.3686Z" fill="white"/>
<path d="M34.1783 38.1791H30.2422L30.2859 38.0916L45.3305 5.85938H49.2666L49.2229 5.94685L43.4062 18.4111L42.5753 20.1605L34.1783 38.1791ZM30.4171 38.0479H34.0908L42.4441 20.073L43.275 18.3237L49.048 5.94685H45.3743L30.4171 38.0479Z" fill="white"/>
<path d="M45.1583 38.3971L33.3938 22.7402H29.5889L41.3534 38.3971H45.1583Z" fill="white"/>
<path d="M45.3326 38.4424H41.3528L41.309 38.3987L29.457 22.6543H33.4369L33.4806 22.698L45.3326 38.4424ZM41.3965 38.3112H45.0265L33.3931 22.8292H29.7632L41.3965 38.3112Z" fill="white"/>
<path d="M31.1625 0C14.1935 0 0.460938 13.7326 0.460938 30.7015C0.460938 37.3491 2.56019 43.472 6.14641 48.5014C6.88989 49.551 7.67711 50.5569 8.5518 51.4753L8.59553 51.5191L10.4324 47.5393L10.3886 47.4955C9.55769 46.4459 8.8142 45.3963 8.11445 44.2154C5.7528 40.2356 4.44077 35.5998 4.44077 30.6578C4.44077 15.9193 16.3802 3.93609 31.1625 3.93609C37.2415 3.93609 42.7958 5.90414 47.2567 9.35915L49.181 5.77294C44.1516 2.18672 37.8538 0 31.1625 0Z" fill="white"/>
<mask id="mask0_1157_812" style="mask-type:luminance" maskUnits="userSpaceOnUse" x="54" y="11" width="3" height="3">
<path d="M54.252 11.0215C54.8642 11.765 55.564 12.6397 56.1325 13.4706C55.564 12.5959 54.908 11.8087 54.252 11.0215Z" fill="white"/>
</mask>
<g mask="url(#mask0_1157_812)">
<path d="M57.0959 11.4601L55.7839 14.2154L53.291 12.9908L54.603 10.2793L57.0959 11.4601Z" fill="white"/>
</g>
<mask id="mask1_1157_812" style="mask-type:luminance" maskUnits="userSpaceOnUse" x="54" y="18" width="1" height="1">
<path d="M54.2959 18.1484C54.3396 18.2359 54.3834 18.2796 54.4271 18.3671C54.3834 18.2796 54.3396 18.1922 54.2959 18.1484Z" fill="white"/>
</mask>
<g mask="url(#mask1_1157_812)">
<path d="M54.4724 18.1929L54.3849 18.4116L54.21 18.3241L54.2974 18.1055L54.4724 18.1929Z" fill="white"/>
</g>
<path d="M56.5735 13.9508C56.4861 13.7759 56.3549 13.6447 56.2674 13.4698C55.6988 12.6388 54.9991 11.7641 54.3868 11.0206C54.3431 10.9769 54.2994 10.8894 54.2556 10.8457L53.6433 12.2015L52.3313 15.0879C52.9436 15.9189 53.9057 17.2309 54.4306 18.1931C54.4743 18.2805 54.518 18.3243 54.5618 18.4117C56.661 22.2166 57.8418 26.5901 57.8418 31.1822C57.8418 45.9207 45.9024 57.9039 31.1201 57.9039C25.3035 57.9039 19.9241 56.0233 15.507 52.8744L13.7139 56.5044C18.6558 59.9157 24.6912 61.8837 31.1201 61.8837C48.0891 61.8837 61.8217 48.1511 61.8217 31.1822C61.7342 24.8844 59.8099 18.8928 56.5735 13.9508Z" fill="white"/>
<path d="M46.9505 22.5211L47.6502 21.0778L49.487 16.9668C48.7436 15.9609 48.1313 14.5614 47.2129 13.7305L44.7637 19.0661L43.9765 20.728L35.667 38.4841H39.4719L46.9505 22.5211Z" fill="white"/>
<path d="M39.5572 38.4845H35.6211L44.7178 19.0227L47.167 13.5996L47.2107 13.6433C47.7792 14.2119 48.2603 14.9554 48.6977 15.6551C48.9601 16.0925 49.2225 16.5298 49.4849 16.8797V16.9234V16.9672L47.648 21.0782L39.5572 38.4845ZM35.8398 38.3533H39.5135L47.6043 21.0345L49.4412 16.9234C49.1787 16.5298 48.9163 16.1362 48.6539 15.6989C48.2166 14.9991 47.7792 14.2994 47.2544 13.7308L44.849 19.0227L44.0618 20.6846L35.8398 38.3533Z" fill="white"/>
<path d="M50.8863 14.126C50.0991 13.2076 49.2244 12.3329 48.306 11.502L47.6062 12.9889L46.7753 14.7383C47.6937 15.613 48.5247 16.5314 49.2681 17.581C52.1109 21.3859 53.7728 26.0655 53.7728 31.1824C53.7728 43.7342 43.5827 53.968 30.9872 53.968C25.258 53.968 20.0099 51.825 15.9863 48.3263C15.0679 47.4953 14.1932 46.6206 13.406 45.7022L11.8753 48.5012C11.8753 48.545 11.5254 48.9386 11.5254 48.9823C12.3563 49.857 13.4934 50.7754 14.4556 51.5189C18.9602 55.1926 24.6894 57.3793 30.9434 57.3793C45.3758 57.3793 57.0966 45.6585 57.0966 31.2262C57.1841 24.6223 54.8224 18.6744 50.8863 14.126Z" fill="white"/>
<path d="M54.5615 17.7985C53.993 16.8363 53.0308 15.5243 52.4623 14.6934V14.7371L49.1822 21.6471L48.4824 23.1341L41.3975 38.3099H45.2024L54.6927 17.9734C54.649 17.9297 54.6052 17.8422 54.5615 17.7985Z" fill="white"/>
<path d="M44.0655 18.9355L40.4355 21.5596L42.666 21.997L44.1967 23.2652L44.0655 18.9355Z" fill="#2B5BA8"/>
<path d="M48.5259 21.123L44.9834 23.6159L47.1701 24.097L48.5696 25.5402L48.5259 21.123Z" fill="#2B5BA8"/>
<path d="M42.8396 34.8555L40.959 39.0977" stroke="white" stroke-width="0.205552" stroke-miterlimit="10"/>
</svg>
