<svg width="21" height="20" viewBox="0 0 21 20" fill="none" xmlns="http://www.w3.org/2000/svg">
<path d="M14.4609 6.88281C16.0522 6.88281 17.5784 7.51495 18.7036 8.64017C19.8288 9.76539 20.4609 11.2915 20.4609 12.8828V19.8828H16.4609V12.8828C16.4609 12.3524 16.2502 11.8437 15.8752 11.4686C15.5001 11.0935 14.9914 10.8828 14.4609 10.8828C13.9305 10.8828 13.4218 11.0935 13.0467 11.4686C12.6717 11.8437 12.4609 12.3524 12.4609 12.8828V19.8828H8.46094V12.8828C8.46094 11.2915 9.09308 9.76539 10.2183 8.64017C11.3435 7.51495 12.8696 6.88281 14.4609 6.88281Z" fill="white"/>
<path d="M4.46094 7.88281H0.460938V19.8828H4.46094V7.88281Z" fill="white"/>
<path d="M2.46094 4.88281C3.56551 4.88281 4.46094 3.98738 4.46094 2.88281C4.46094 1.77824 3.56551 0.882812 2.46094 0.882812C1.35637 0.882812 0.460938 1.77824 0.460938 2.88281C0.460938 3.98738 1.35637 4.88281 2.46094 4.88281Z" fill="white"/>
</svg>
