<svg width="52" height="52" viewBox="0 0 52 52" fill="none" xmlns="http://www.w3.org/2000/svg">
<path d="M26 0C28.3867 0 30.6888 0.304688 32.9062 0.914062C35.1237 1.52344 37.1888 2.40365 39.1016 3.55469C41.0143 4.70573 42.7663 6.0599 44.3574 7.61719C45.9486 9.17448 47.3112 10.9264 48.4453 12.873C49.5794 14.8197 50.4512 16.8932 51.0605 19.0938C51.6699 21.2943 51.9831 23.5964 52 26C52 28.3867 51.6953 30.6888 51.0859 32.9062C50.4766 35.1237 49.5964 37.1888 48.4453 39.1016C47.2943 41.0143 45.9401 42.7663 44.3828 44.3574C42.8255 45.9486 41.0736 47.3112 39.127 48.4453C37.1803 49.5794 35.1068 50.4512 32.9062 51.0605C30.7057 51.6699 28.4036 51.9831 26 52C23.6133 52 21.3112 51.6953 19.0938 51.0859C16.8763 50.4766 14.8112 49.5964 12.8984 48.4453C10.9857 47.2943 9.23372 45.9401 7.64258 44.3828C6.05143 42.8255 4.6888 41.0736 3.55469 39.127C2.42057 37.1803 1.54883 35.1068 0.939453 32.9062C0.330078 30.7057 0.0169271 28.4036 0 26C0 23.6133 0.304688 21.3112 0.914062 19.0938C1.52344 16.8763 2.40365 14.8112 3.55469 12.8984C4.70573 10.9857 6.0599 9.23372 7.61719 7.64258C9.17448 6.05143 10.9264 4.6888 12.873 3.55469C14.8197 2.42057 16.8932 1.54883 19.0938 0.939453C21.2943 0.330078 23.5964 0.0169271 26 0ZM41.3105 17.3926L37.8574 13.9395L21.125 30.6719L14.1426 23.6895L10.6895 27.1426L21.125 37.5781L41.3105 17.3926Z" fill="white"/>
</svg>
