<svg width="23" height="19" viewBox="0 0 23 19" fill="none" xmlns="http://www.w3.org/2000/svg">
<path d="M22.4609 0.949509C21.5033 1.62499 20.443 2.14162 19.3209 2.47951C18.7187 1.78702 17.9183 1.2962 17.028 1.07343C16.1377 0.850669 15.2004 0.906704 14.343 1.23396C13.4856 1.56122 12.7494 2.14391 12.2339 2.90323C11.7185 3.66254 11.4486 4.56184 11.4609 5.47951V6.47951C9.70357 6.52508 7.96221 6.13532 6.39195 5.34495C4.82168 4.55459 3.47125 3.38814 2.46094 1.94951C2.46094 1.94951 -1.53906 10.9495 7.46094 14.9495C5.40147 16.3475 2.94809 17.0484 0.460938 16.9495C9.46094 21.9495 20.4609 16.9495 20.4609 5.44951C20.46 5.17096 20.4332 4.8931 20.3809 4.61951C21.4015 3.613 22.1218 2.34222 22.4609 0.949509Z" fill="white"/>
</svg>
